<svg width="255" height="48" viewBox="0 0 255 48" fill="none" xmlns="http://www.w3.org/2000/svg">
<rect width="255" height="48" rx="6" fill="black"/>
<path d="M76.5718 43.25C76.2671 43.25 75.9698 43.2461 75.6675 43.2393C75.0413 43.2311 74.4166 43.1766 73.7984 43.0762C73.222 42.9769 72.6636 42.7923 72.1416 42.5283C71.6245 42.2665 71.1528 41.9233 70.7447 41.5117C70.3306 41.105 69.9859 40.6332 69.7241 40.1152C69.4595 39.5938 69.2764 39.0349 69.1811 38.458C69.0783 37.8381 69.0226 37.2113 69.0146 36.583C69.0083 36.3721 69 35.6699 69 35.6699V12.5693C69 12.5693 69.0088 11.8779 69.0147 11.6748C69.0223 11.0475 69.0777 10.4217 69.1802 9.80273C69.2757 9.22425 69.4589 8.66375 69.7237 8.14063C69.9844 7.62294 70.3273 7.15086 70.7388 6.74268C71.1499 6.33062 71.6231 5.9856 72.1412 5.72021C72.6619 5.45709 73.2192 5.27373 73.7945 5.17627C74.4147 5.07484 75.0416 5.02 75.67 5.01221L76.5723 5H179.341L180.254 5.0127C180.877 5.0201 181.498 5.07445 182.112 5.17529C182.693 5.27398 183.257 5.45862 183.783 5.72314C184.821 6.25799 185.666 7.10416 186.198 8.14307C186.459 8.66258 186.639 9.21851 186.733 9.79199C186.837 10.416 186.895 11.0467 186.907 11.6792C186.91 11.9624 186.91 12.2666 186.91 12.5693C186.918 12.9443 186.918 13.3013 186.918 13.6611V34.5898C186.918 34.9531 186.918 35.3076 186.91 35.665C186.91 35.9902 186.91 36.2881 186.906 36.5947C186.895 37.2159 186.837 37.8354 186.735 38.4482C186.642 39.0293 186.46 39.5925 186.195 40.1182C185.932 40.6306 185.589 41.0983 185.18 41.5039C184.771 41.9177 184.299 42.2629 183.78 42.5264C183.255 42.7924 182.693 42.9777 182.112 43.0762C181.494 43.1772 180.869 43.2317 180.243 43.2393C179.95 43.2461 179.644 43.25 179.346 43.25L178.262 43.252L76.5718 43.25Z" fill="black"/>
<path d="M92.895 24.4263C92.9057 23.5916 93.1274 22.7733 93.5395 22.0473C93.9515 21.3214 94.5404 20.7114 95.2515 20.2742C94.7998 19.6291 94.2038 19.0981 93.511 18.7236C92.8182 18.349 92.0476 18.1412 91.2604 18.1166C89.5811 17.9403 87.9532 19.1214 87.0975 19.1214C86.2252 19.1214 84.9077 18.1341 83.489 18.1633C82.5713 18.1929 81.6769 18.4598 80.8931 18.9378C80.1092 19.4159 79.4625 20.0888 79.016 20.8911C77.082 24.2395 78.5246 29.1606 80.3772 31.8672C81.3041 33.1926 82.3874 34.673 83.8049 34.6205C85.1919 34.563 85.71 33.736 87.3843 33.736C89.043 33.736 89.5291 34.6205 90.9753 34.5871C92.4637 34.563 93.4014 33.2559 94.2958 31.918C94.9618 30.9736 95.4742 29.9299 95.8142 28.8255C94.9495 28.4597 94.2116 27.8476 93.6925 27.0653C93.1733 26.283 92.896 25.3652 92.895 24.4263Z" fill="white"/>
<path d="M90.1645 16.3363C90.9761 15.3621 91.3759 14.1099 91.279 12.8457C90.0392 12.9759 88.894 13.5685 88.0715 14.5053C87.6693 14.963 87.3613 15.4954 87.1651 16.0722C86.9688 16.649 86.8882 17.2587 86.9278 17.8667C87.5479 17.8731 88.1614 17.7387 88.7221 17.4736C89.2827 17.2085 89.7759 16.8196 90.1645 16.3363Z" fill="white"/>
<path d="M110.43 31.2647H105.696L104.56 34.6211H102.555L107.038 22.2031H109.121L113.604 34.6211H111.565L110.43 31.2647ZM106.187 29.7158H109.939L108.089 24.2686H108.037L106.187 29.7158Z" fill="white"/>
<path d="M123.286 30.0945C123.286 32.9079 121.78 34.7155 119.508 34.7155C118.932 34.7457 118.36 34.6131 117.856 34.3329C117.352 34.0528 116.937 33.6364 116.659 33.1315H116.616V37.6159H114.758V25.5671H116.557V27.073H116.591C116.882 26.5705 117.304 26.1563 117.811 25.8745C118.319 25.5926 118.893 25.4537 119.474 25.4724C121.771 25.4724 123.286 27.2888 123.286 30.0945ZM121.376 30.0945C121.376 28.2615 120.429 27.0564 118.983 27.0564C117.564 27.0564 116.608 28.2868 116.608 30.0945C116.608 31.9187 117.564 33.1404 118.983 33.1404C120.429 33.1404 121.376 31.9441 121.376 30.0945Z" fill="white"/>
<path d="M133.251 30.0944C133.251 32.9079 131.745 34.7155 129.473 34.7155C128.897 34.7456 128.325 34.613 127.821 34.3329C127.317 34.0528 126.902 33.6364 126.624 33.1315H126.581V37.6159H124.723V25.5671H126.521V27.073H126.556C126.847 26.5705 127.268 26.1563 127.776 25.8745C128.284 25.5926 128.858 25.4537 129.438 25.4724C131.736 25.4724 133.251 27.2888 133.251 30.0944ZM131.341 30.0944C131.341 28.2614 130.394 27.0564 128.948 27.0564C127.528 27.0564 126.573 28.2868 126.573 30.0944C126.573 31.9187 127.528 33.1403 128.948 33.1403C130.394 33.1403 131.341 31.9441 131.341 30.0944Z" fill="white"/>
<path d="M139.836 31.1612C139.974 32.3926 141.17 33.2012 142.805 33.2012C144.371 33.2012 145.498 32.3926 145.498 31.2822C145.498 30.3184 144.818 29.7412 143.209 29.3457L141.6 28.958C139.319 28.4072 138.261 27.3408 138.261 25.6104C138.261 23.4678 140.128 21.9961 142.779 21.9961C145.403 21.9961 147.202 23.4678 147.263 25.6104H145.387C145.274 24.3711 144.25 23.6231 142.753 23.6231C141.256 23.6231 140.231 24.3799 140.231 25.4815C140.231 26.3594 140.886 26.876 142.486 27.2715L143.854 27.6074C146.402 28.2099 147.461 29.2334 147.461 31.0498C147.461 33.373 145.61 34.8281 142.667 34.8281C139.913 34.8281 138.054 33.4072 137.934 31.1611L139.836 31.1612Z" fill="white"/>
<path d="M151.473 23.4248V25.5674H153.194V27.0391H151.473V32.0303C151.473 32.8057 151.817 33.167 152.574 33.167C152.779 33.1634 152.983 33.1491 153.186 33.124V34.5869C152.845 34.6505 152.499 34.6793 152.153 34.6728C150.32 34.6728 149.605 33.9843 149.605 32.2285V27.0391H148.289V25.5674H149.605V23.4248H151.473Z" fill="white"/>
<path d="M154.191 30.0947C154.191 27.2461 155.869 25.4561 158.485 25.4561C161.11 25.4561 162.78 27.2461 162.78 30.0947C162.78 32.9512 161.119 34.7334 158.485 34.7334C155.852 34.7334 154.191 32.9512 154.191 30.0947ZM160.887 30.0947C160.887 28.1406 159.991 26.9873 158.485 26.9873C156.979 26.9873 156.085 28.1494 156.085 30.0947C156.085 32.0566 156.979 33.2012 158.485 33.2012C159.991 33.2012 160.887 32.0566 160.887 30.0947Z" fill="white"/>
<path d="M164.313 25.567H166.085V27.108H166.128C166.248 26.6267 166.53 26.2014 166.926 25.9035C167.323 25.6056 167.81 25.4534 168.306 25.4723C168.52 25.4715 168.733 25.4948 168.942 25.5416V27.2799C168.672 27.1973 168.39 27.1593 168.107 27.1676C167.837 27.1566 167.568 27.2042 167.318 27.3071C167.069 27.41 166.844 27.5658 166.66 27.7636C166.476 27.9615 166.337 28.1969 166.253 28.4536C166.168 28.7102 166.14 28.9821 166.171 29.2506V34.6207H164.312L164.313 25.567Z" fill="white"/>
<path d="M177.511 31.9619C177.261 33.6055 175.66 34.7334 173.612 34.7334C170.979 34.7334 169.344 32.9687 169.344 30.1377C169.344 27.2979 170.987 25.4561 173.534 25.4561C176.039 25.4561 177.614 27.1768 177.614 29.9219V30.5586H171.22V30.6709C171.19 31.0041 171.232 31.3398 171.342 31.6556C171.452 31.9714 171.628 32.2602 171.859 32.5028C172.089 32.7453 172.368 32.9361 172.678 33.0624C172.988 33.1887 173.321 33.2476 173.655 33.2353C174.094 33.2765 174.535 33.1748 174.912 32.9453C175.289 32.7159 175.581 32.371 175.746 31.9619L177.511 31.9619ZM171.229 29.2598H175.755C175.772 28.9602 175.726 28.6604 175.621 28.3791C175.517 28.0979 175.355 27.8414 175.147 27.6256C174.938 27.4099 174.687 27.2395 174.41 27.1253C174.132 27.0111 173.834 26.9555 173.534 26.9619C173.232 26.9601 172.932 27.0183 172.652 27.133C172.371 27.2477 172.117 27.4168 171.903 27.6304C171.688 27.8441 171.518 28.098 171.403 28.3777C171.287 28.6573 171.228 28.9571 171.229 29.2598Z" fill="white"/>
<path d="M105.952 12.8554C106.342 12.8274 106.733 12.8863 107.097 13.0277C107.461 13.1692 107.789 13.3897 108.058 13.6733C108.326 13.9569 108.529 14.2966 108.65 14.6679C108.771 15.0391 108.809 15.4327 108.76 15.8202C108.76 17.7265 107.729 18.8222 105.952 18.8222H103.797V12.8554H105.952ZM104.724 17.9784H105.849C106.127 17.995 106.406 17.9494 106.664 17.8448C106.923 17.7402 107.155 17.5792 107.343 17.3737C107.532 17.1681 107.672 16.9231 107.754 16.6565C107.836 16.3898 107.857 16.1083 107.816 15.8324C107.854 15.5576 107.831 15.2778 107.747 15.0131C107.664 14.7485 107.524 14.5055 107.336 14.3015C107.148 14.0976 106.917 13.9378 106.66 13.8336C106.403 13.7293 106.126 13.6832 105.849 13.6986H104.724V17.9784Z" fill="white"/>
<path d="M109.807 16.5688C109.779 16.2729 109.812 15.9743 109.906 15.6922C110 15.4102 110.152 15.1508 110.352 14.9309C110.552 14.7109 110.795 14.5351 111.067 14.4148C111.339 14.2946 111.633 14.2324 111.93 14.2324C112.228 14.2324 112.522 14.2946 112.794 14.4148C113.065 14.5351 113.309 14.7109 113.509 14.9309C113.709 15.1508 113.861 15.4102 113.955 15.6922C114.048 15.9743 114.082 16.2729 114.054 16.5688C114.083 16.865 114.049 17.164 113.956 17.4465C113.862 17.7291 113.711 17.9889 113.511 18.2093C113.311 18.4297 113.067 18.6058 112.795 18.7264C112.522 18.8469 112.228 18.9092 111.93 18.9092C111.633 18.9092 111.339 18.8469 111.066 18.7264C110.794 18.6058 110.55 18.4297 110.35 18.2093C110.15 17.9889 109.999 17.7291 109.905 17.4465C109.812 17.164 109.778 16.865 109.807 16.5688ZM113.14 16.5688C113.14 15.5927 112.701 15.0219 111.932 15.0219C111.159 15.0219 110.725 15.5927 110.725 16.5688C110.725 17.5527 111.159 18.1191 111.932 18.1191C112.701 18.1191 113.14 17.5488 113.14 16.5688Z" fill="white"/>
<path d="M119.699 18.8223H118.777L117.847 15.5059H117.776L116.85 18.8223H115.937L114.695 14.3193H115.597L116.403 17.7553H116.47L117.396 14.3193H118.248L119.174 17.7553H119.244L120.047 14.3193H120.936L119.699 18.8223Z" fill="white"/>
<path d="M121.98 14.3189H122.836V15.0342H122.902C123.015 14.7773 123.205 14.5619 123.446 14.4181C123.687 14.2743 123.966 14.2092 124.246 14.232C124.465 14.2155 124.685 14.2485 124.89 14.3286C125.094 14.4087 125.278 14.5338 125.428 14.6947C125.578 14.8555 125.689 15.048 125.754 15.2578C125.82 15.4676 125.837 15.6894 125.805 15.9068V18.8218H124.916V16.1299C124.916 15.4063 124.602 15.0464 123.944 15.0464C123.796 15.0395 123.647 15.0648 123.509 15.1207C123.371 15.1765 123.247 15.2615 123.144 15.3699C123.042 15.4783 122.965 15.6075 122.917 15.7486C122.87 15.8897 122.853 16.0395 122.869 16.1875V18.8218H121.98L121.98 14.3189Z" fill="white"/>
<path d="M127.219 12.5615H128.107V18.8223H127.219V12.5615Z" fill="white"/>
<path d="M129.342 16.5689C129.314 16.2729 129.348 15.9744 129.442 15.6923C129.535 15.4102 129.687 15.1509 129.887 14.9309C130.087 14.7109 130.331 14.5351 130.603 14.4148C130.875 14.2946 131.169 14.2324 131.466 14.2324C131.763 14.2324 132.057 14.2946 132.329 14.4148C132.601 14.5351 132.845 14.7109 133.045 14.9309C133.245 15.1509 133.396 15.4102 133.49 15.6923C133.584 15.9744 133.618 16.2729 133.59 16.5689C133.618 16.8651 133.585 17.1641 133.491 17.4466C133.398 17.7292 133.246 17.989 133.046 18.2094C132.846 18.4298 132.602 18.6059 132.33 18.7264C132.058 18.847 131.763 18.9092 131.466 18.9092C131.168 18.9092 130.874 18.847 130.602 18.7264C130.33 18.6059 130.086 18.4298 129.886 18.2094C129.686 17.989 129.534 17.7292 129.44 17.4466C129.347 17.1641 129.313 16.8651 129.342 16.5689ZM132.675 16.5689C132.675 15.5928 132.237 15.022 131.467 15.022C130.695 15.022 130.26 15.5928 130.26 16.5689C130.26 17.5528 130.695 18.1192 131.467 18.1192C132.237 18.1192 132.675 17.5489 132.675 16.5689Z" fill="white"/>
<path d="M134.527 17.5488C134.527 16.7383 135.131 16.271 136.202 16.2046L137.422 16.1343V15.7456C137.422 15.27 137.107 15.0015 136.5 15.0015C136.004 15.0015 135.66 15.1836 135.562 15.502H134.701C134.792 14.7285 135.52 14.2324 136.541 14.2324C137.67 14.2324 138.307 14.7944 138.307 15.7456V18.8223H137.451V18.1895H137.381C137.238 18.4164 137.038 18.6015 136.8 18.7257C136.562 18.8499 136.296 18.9088 136.028 18.8965C135.839 18.9161 135.648 18.8959 135.467 18.8372C135.287 18.7786 135.12 18.6826 134.979 18.5557C134.837 18.4287 134.724 18.2735 134.646 18.1001C134.569 17.9267 134.528 17.7389 134.527 17.5488ZM137.422 17.1641V16.7876L136.322 16.8579C135.702 16.8994 135.421 17.1103 135.421 17.5073C135.421 17.9126 135.772 18.1484 136.256 18.1484C136.398 18.1628 136.541 18.1485 136.677 18.1064C136.813 18.0643 136.939 17.9953 137.048 17.9034C137.156 17.8116 137.246 17.6988 137.31 17.5718C137.374 17.4448 137.412 17.3061 137.422 17.1641Z" fill="white"/>
<path d="M139.473 16.5689C139.473 15.146 140.204 14.2446 141.342 14.2446C141.623 14.2317 141.903 14.2991 142.147 14.439C142.392 14.5789 142.591 14.7855 142.723 15.0346H142.789V12.5615H143.678V18.8223H142.826V18.1108H142.756C142.614 18.3583 142.408 18.5624 142.158 18.7008C141.909 18.8393 141.627 18.907 141.342 18.8965C140.196 18.8965 139.473 17.9951 139.473 16.5689ZM140.391 16.5689C140.391 17.5239 140.841 18.0987 141.594 18.0987C142.343 18.0987 142.806 17.5157 142.806 16.5728C142.806 15.6343 142.338 15.043 141.594 15.043C140.846 15.043 140.391 15.6216 140.391 16.5689Z" fill="white"/>
<path d="M147.358 16.5688C147.329 16.2729 147.363 15.9743 147.457 15.6922C147.551 15.4102 147.703 15.1508 147.903 14.9309C148.103 14.7109 148.346 14.5351 148.618 14.4148C148.89 14.2946 149.184 14.2324 149.481 14.2324C149.779 14.2324 150.072 14.2946 150.344 14.4148C150.616 14.5351 150.86 14.7109 151.06 14.9309C151.26 15.1508 151.412 15.4102 151.505 15.6922C151.599 15.9743 151.633 16.2729 151.605 16.5688C151.634 16.865 151.6 17.164 151.507 17.4465C151.413 17.7291 151.261 17.9889 151.061 18.2093C150.861 18.4297 150.617 18.6058 150.345 18.7264C150.073 18.8469 149.779 18.9092 149.481 18.9092C149.184 18.9092 148.889 18.8469 148.617 18.7264C148.345 18.6058 148.101 18.4297 147.901 18.2093C147.701 17.9889 147.549 17.7291 147.456 17.4465C147.362 17.164 147.329 16.865 147.358 16.5688ZM150.691 16.5688C150.691 15.5927 150.252 15.0219 149.483 15.0219C148.71 15.0219 148.276 15.5927 148.276 16.5688C148.276 17.5527 148.71 18.1191 149.483 18.1191C150.252 18.1191 150.691 17.5488 150.691 16.5688Z" fill="white"/>
<path d="M152.797 14.3189H153.652V15.0342H153.719C153.831 14.7773 154.021 14.5619 154.262 14.4181C154.503 14.2743 154.783 14.2092 155.063 14.232C155.282 14.2155 155.502 14.2485 155.706 14.3286C155.911 14.4087 156.095 14.5338 156.244 14.6947C156.394 14.8555 156.506 15.048 156.571 15.2578C156.636 15.4676 156.653 15.6894 156.621 15.9068V18.8218H155.732V16.1299C155.732 15.4063 155.418 15.0464 154.761 15.0464C154.612 15.0395 154.463 15.0648 154.325 15.1207C154.187 15.1765 154.063 15.2615 153.961 15.3699C153.859 15.4783 153.781 15.6075 153.734 15.7486C153.686 15.8897 153.67 16.0395 153.686 16.1875V18.8218H152.797V14.3189Z" fill="white"/>
<path d="M161.64 13.1982V14.3398H162.615V15.0884H161.64V17.4038C161.64 17.8755 161.834 18.082 162.276 18.082C162.39 18.0817 162.503 18.0748 162.615 18.0615V18.8018C162.456 18.8303 162.294 18.8455 162.132 18.8472C161.144 18.8472 160.75 18.4995 160.75 17.6313V15.0883H160.035V14.3398H160.75V13.1982H161.64Z" fill="white"/>
<path d="M163.832 12.5615H164.713V15.043H164.783C164.901 14.7837 165.097 14.5671 165.342 14.4227C165.588 14.2784 165.872 14.2133 166.156 14.2363C166.374 14.2245 166.592 14.2609 166.794 14.3429C166.997 14.4249 167.178 14.5506 167.326 14.711C167.475 14.8713 167.585 15.0623 167.651 15.2705C167.717 15.4786 167.736 15.6987 167.707 15.915V18.8223H166.817V16.1343C166.817 15.415 166.482 15.0508 165.855 15.0508C165.702 15.0382 165.548 15.0592 165.404 15.1123C165.261 15.1654 165.13 15.2492 165.022 15.3579C164.914 15.4667 164.831 15.5977 164.779 15.7418C164.727 15.886 164.707 16.0397 164.721 16.1924V18.8223H163.832L163.832 12.5615Z" fill="white"/>
<path d="M172.886 17.6065C172.766 18.0181 172.504 18.374 172.147 18.6122C171.791 18.8503 171.362 18.9555 170.935 18.9092C170.639 18.9171 170.344 18.8603 170.071 18.7427C169.799 18.6252 169.555 18.4498 169.357 18.2286C169.159 18.0075 169.012 17.7459 168.925 17.4621C168.838 17.1783 168.815 16.879 168.855 16.585C168.816 16.2902 168.84 15.9902 168.926 15.7055C169.013 15.4209 169.16 15.1581 169.356 14.935C169.553 14.712 169.796 14.5338 170.068 14.4126C170.339 14.2914 170.634 14.23 170.931 14.2325C172.184 14.2325 172.94 15.0885 172.94 16.5025V16.8126H169.76V16.8624C169.746 17.0276 169.767 17.194 169.821 17.3507C169.876 17.5075 169.962 17.6512 170.075 17.7726C170.188 17.8941 170.325 17.9906 170.477 18.056C170.629 18.1214 170.794 18.1542 170.96 18.1524C171.172 18.1779 171.388 18.1396 171.578 18.0424C171.769 17.9452 171.927 17.7935 172.031 17.6065L172.886 17.6065ZM169.76 16.1553H172.035C172.046 16.0042 172.025 15.8524 171.975 15.7097C171.924 15.567 171.843 15.4365 171.739 15.3266C171.635 15.2168 171.508 15.13 171.368 15.0718C171.228 15.0136 171.078 14.9854 170.926 14.9888C170.773 14.9869 170.62 15.0158 170.478 15.0737C170.335 15.1317 170.206 15.2175 170.097 15.3262C169.989 15.4349 169.903 15.5643 169.845 15.7067C169.787 15.8491 169.758 16.0016 169.76 16.1553Z" fill="white"/>
</svg>
