<svg width="26" height="26" viewBox="0 0 26 26" fill="none" xmlns="http://www.w3.org/2000/svg">
<rect width="26" height="26" rx="4" fill="white"/>
<path d="M18.61 6C18.7251 6.05813 18.8463 6.07912 18.9723 6.07912C19.2817 6.07589 19.5879 6.11464 19.8942 6.15339C19.972 6.16307 20.0015 6.17599 19.9999 6.26318C19.9968 7.24647 19.9953 8.22814 19.9999 9.21142C19.9999 9.34059 19.9315 9.32122 19.8569 9.32122C19.2615 9.32122 18.666 9.30346 18.0721 9.3309C17.6694 9.34866 17.2574 9.3745 16.92 9.66997C16.7086 9.85565 16.6075 10.0978 16.5423 10.3626C16.4801 10.608 16.4909 10.8599 16.4925 11.1118C16.4972 11.7883 16.4987 12.4648 16.4909 13.1413C16.4894 13.285 16.522 13.3254 16.6651 13.3238C17.6741 13.3173 18.6831 13.3254 19.6921 13.3141C19.8709 13.3125 19.8818 13.3819 19.8538 13.5224C19.7745 13.9083 19.7605 14.3038 19.6999 14.6897C19.6144 15.229 19.5864 15.7747 19.4807 16.3108C19.4542 16.4416 19.4527 16.5804 19.448 16.7112C19.4434 16.8791 19.3734 16.8775 19.2552 16.8775C18.4032 16.8743 17.5513 16.8807 16.6993 16.8711C16.5391 16.8711 16.4909 16.9017 16.4909 17.0809C16.4972 19.984 16.4941 22.8854 16.5003 25.7884C16.5003 25.9596 16.463 26.0016 16.2966 26C15.2441 25.9903 14.1915 25.9919 13.139 26C12.9882 26 12.9586 25.9547 12.9586 25.8078C12.9633 22.9048 12.9586 20.0034 12.9664 17.1003C12.9664 16.905 12.912 16.8678 12.7379 16.8711C11.8797 16.8807 11.0214 16.871 10.1632 16.8791C10.0295 16.8791 10 16.8404 10 16.7064C10.0047 15.6327 10.0062 14.559 10 13.4853C10 13.3432 10.0435 13.3157 10.1695 13.3173C11.0463 13.3222 11.9232 13.3173 12.8016 13.3222C12.9135 13.3222 12.968 13.3076 12.9664 13.1672C12.9602 12.334 12.9819 11.5009 12.9602 10.6678C12.9384 9.80721 13.1001 8.99507 13.467 8.22975C13.7811 7.57261 14.2444 7.05594 14.8461 6.65714C15.0606 6.51506 15.2969 6.40526 15.5177 6.31162C15.8084 6.18891 16.138 6.11464 16.4645 6.08073C16.5718 6.06943 16.6744 6.05167 16.7723 6.00161H18.0503C18.1763 6.04844 18.3006 6.07427 18.4266 6.00161H18.6147L18.61 6Z" fill="black"/>
</svg>
