<svg width="255" height="48" viewBox="0 0 255 48" fill="none" xmlns="http://www.w3.org/2000/svg">
<rect width="255" height="48" rx="6" fill="black"/>
<path d="M190 4H65C62.2386 4 60 6.23858 60 9V39C60 41.7614 62.2386 44 65 44H190C192.761 44 195 41.7614 195 39V9C195 6.23858 192.761 4 190 4Z" fill="black"/>
<path d="M107.419 14.2404C107.419 15.0804 107.169 15.7504 106.669 16.2404C106.109 16.8304 105.379 17.1304 104.469 17.1304C103.559 17.1304 102.859 16.8304 102.259 16.2304C101.659 15.6304 101.359 14.8804 101.359 14.0004C101.359 13.1204 101.659 12.3704 102.259 11.7704C102.859 11.1704 103.599 10.8604 104.469 10.8604C104.909 10.8604 105.329 10.9404 105.719 11.0904C106.109 11.2504 106.429 11.4704 106.679 11.7504L106.129 12.3004C105.949 12.0804 105.709 11.9004 105.409 11.7804C105.119 11.6504 104.799 11.5904 104.469 11.5904C103.819 11.5904 103.259 11.8204 102.809 12.2704C102.359 12.7304 102.139 13.3004 102.139 13.9904C102.139 14.6804 102.359 15.2504 102.809 15.7104C103.259 16.1604 103.809 16.3904 104.469 16.3904C105.069 16.3904 105.559 16.2204 105.959 15.8904C106.359 15.5604 106.589 15.0904 106.649 14.5104H104.469V13.7904H107.379C107.409 13.9504 107.419 14.1004 107.419 14.2404Z" fill="white" stroke="white" stroke-width="0.2" stroke-miterlimit="10"/>
<path d="M112.031 11V11.74H109.301V13.64H111.761V14.36H109.301V16.26H112.031V17H108.531V11H112.031Z" fill="white" stroke="white" stroke-width="0.2" stroke-miterlimit="10"/>
<path d="M115.278 11.74V17H114.508V11.74H112.828V11H116.948V11.74H115.268H115.278Z" fill="white" stroke="white" stroke-width="0.2" stroke-miterlimit="10"/>
<path d="M120.711 17H119.941V11H120.711V17Z" fill="white" stroke="white" stroke-width="0.2" stroke-miterlimit="10"/>
<path d="M124.13 11.74V17H123.36V11.74H121.68V11H125.8V11.74H124.12H124.13Z" fill="white" stroke="white" stroke-width="0.2" stroke-miterlimit="10"/>
<path d="M134.489 14.0004C134.489 14.8904 134.189 15.6304 133.599 16.2304C132.999 16.8304 132.269 17.1304 131.399 17.1304C130.529 17.1304 129.799 16.8304 129.199 16.2304C128.609 15.6304 128.309 14.8904 128.309 14.0004C128.309 13.1104 128.609 12.3704 129.199 11.7704C129.789 11.1704 130.519 10.8604 131.399 10.8604C132.279 10.8604 132.999 11.1604 133.599 11.7704C134.189 12.3704 134.489 13.1104 134.489 13.9904V14.0004ZM129.109 14.0004C129.109 14.6904 129.329 15.2704 129.759 15.7204C130.199 16.1704 130.749 16.4004 131.399 16.4004C132.049 16.4004 132.599 16.1704 133.029 15.7204C133.469 15.2704 133.689 14.7004 133.689 14.0004C133.689 13.3004 133.469 12.7304 133.029 12.2804C132.589 11.8304 132.049 11.6004 131.399 11.6004C130.749 11.6004 130.199 11.8304 129.759 12.2804C129.319 12.7304 129.109 13.3104 129.109 14.0004Z" fill="white" stroke="white" stroke-width="0.2" stroke-miterlimit="10"/>
<path d="M136.34 17H135.57V11H136.51L139.43 15.67H139.46L139.43 14.51V11H140.2V17H139.4L136.35 12.11H136.32L136.35 13.27V17.01L136.34 17Z" fill="white" stroke="white" stroke-width="0.2" stroke-miterlimit="10"/>
<path d="M128.141 25.75C125.791 25.75 123.871 27.54 123.871 30C123.871 32.46 125.791 34.25 128.141 34.25C130.491 34.25 132.411 32.45 132.411 30C132.411 27.55 130.491 25.75 128.141 25.75ZM128.141 32.58C126.851 32.58 125.741 31.52 125.741 30C125.741 28.48 126.851 27.42 128.141 27.42C129.431 27.42 130.541 28.47 130.541 30C130.541 31.53 129.431 32.58 128.141 32.58ZM118.831 25.75C116.481 25.75 114.561 27.54 114.561 30C114.561 32.46 116.481 34.25 118.831 34.25C121.181 34.25 123.101 32.45 123.101 30C123.101 27.55 121.181 25.75 118.831 25.75ZM118.831 32.58C117.541 32.58 116.431 31.52 116.431 30C116.431 28.48 117.541 27.42 118.831 27.42C120.121 27.42 121.231 28.47 121.231 30C121.231 31.53 120.121 32.58 118.831 32.58ZM107.751 27.05V28.85H112.071C111.941 29.86 111.601 30.61 111.091 31.12C110.461 31.75 109.481 32.44 107.761 32.44C105.101 32.44 103.021 30.3 103.021 27.64C103.021 24.98 105.101 22.84 107.761 22.84C109.191 22.84 110.241 23.4 111.011 24.13L112.281 22.86C111.201 21.83 109.771 21.04 107.751 21.04C104.111 21.04 101.051 24 101.051 27.65C101.051 31.3 104.111 34.26 107.751 34.26C109.721 34.26 111.201 33.62 112.361 32.41C113.551 31.22 113.921 29.54 113.921 28.19C113.921 27.77 113.891 27.38 113.821 27.06H107.751V27.05ZM153.061 28.45C152.711 27.5 151.631 25.74 149.421 25.74C147.211 25.74 145.411 27.46 145.411 29.99C145.411 32.37 147.211 34.24 149.631 34.24C151.581 34.24 152.711 33.05 153.171 32.36L151.721 31.39C151.241 32.1 150.581 32.57 149.631 32.57C148.681 32.57 148.001 32.14 147.571 31.28L153.261 28.93L153.071 28.45H153.061ZM147.261 29.87C147.211 28.23 148.531 27.39 149.481 27.39C150.221 27.39 150.851 27.76 151.061 28.29L147.261 29.87ZM142.641 33.99H144.511V21.49H142.641V33.99ZM139.581 26.69H139.521C139.101 26.19 138.301 25.74 137.281 25.74C135.151 25.74 133.201 27.61 133.201 30.01C133.201 32.41 135.151 34.25 137.281 34.25C138.291 34.25 139.101 33.8 139.521 33.28H139.581V33.89C139.581 35.52 138.711 36.39 137.311 36.39C136.171 36.39 135.461 35.57 135.171 34.88L133.541 35.56C134.011 36.69 135.251 38.07 137.311 38.07C139.501 38.07 141.351 36.78 141.351 33.64V26H139.581V26.69ZM137.441 32.57C136.151 32.57 135.071 31.49 135.071 30.01C135.071 28.53 136.151 27.42 137.441 27.42C138.731 27.42 139.711 28.52 139.711 30.01C139.711 31.5 138.711 32.57 137.441 32.57ZM161.821 21.49H157.351V33.99H159.221V29.25H161.831C163.901 29.25 165.931 27.75 165.931 25.37C165.931 22.99 163.901 21.49 161.831 21.49H161.821ZM161.871 27.52H159.221V23.23H161.871C163.271 23.23 164.061 24.39 164.061 25.37C164.061 26.35 163.271 27.51 161.871 27.51V27.52ZM173.401 25.72C172.051 25.72 170.651 26.32 170.071 27.63L171.731 28.32C172.081 27.63 172.741 27.4 173.431 27.4C174.391 27.4 175.381 27.98 175.391 29.01V29.14C175.051 28.95 174.331 28.66 173.441 28.66C171.651 28.66 169.841 29.64 169.841 31.47C169.841 33.14 171.301 34.22 172.941 34.22C174.191 34.22 174.891 33.66 175.321 33H175.381V33.96H177.181V29.17C177.181 26.95 175.521 25.71 173.381 25.71L173.401 25.72ZM173.171 32.57C172.561 32.57 171.711 32.26 171.711 31.51C171.711 30.55 172.771 30.18 173.691 30.18C174.511 30.18 174.901 30.36 175.391 30.6C175.251 31.76 174.251 32.58 173.171 32.58V32.57ZM183.751 25.99L181.611 31.41H181.551L179.331 25.99H177.321L180.651 33.57L178.751 37.78H180.701L185.831 25.99H183.761H183.751ZM166.941 33.99H168.811V21.49H166.941V33.99Z" fill="white"/>
<path d="M80.7203 23.4202L70.0703 34.7202C70.4003 35.9502 71.5203 36.8502 72.8503 36.8502C73.3803 36.8502 73.8803 36.7102 74.3103 36.4502L74.3403 36.4302L86.3203 29.5202L80.7103 23.4102L80.7203 23.4202Z" fill="#EA4335"/>
<path d="M91.4905 21.5002H91.4805L86.3105 18.4902L80.4805 23.6802L86.3305 29.5302L91.4805 26.5602C92.3805 26.0702 92.9905 25.1202 92.9905 24.0302C92.9905 22.9402 92.3905 21.9902 91.4905 21.5102V21.5002Z" fill="#FBBC04"/>
<path d="M70.0687 13.2803C70.0087 13.5203 69.9688 13.7603 69.9688 14.0203V33.9903C69.9688 34.2503 69.9987 34.4903 70.0687 34.7303L81.0787 23.7203L70.0687 13.2803Z" fill="#4285F4"/>
<path d="M80.8003 23.9996L86.3103 18.4896L74.3403 11.5496C73.9103 11.2896 73.4003 11.1396 72.8503 11.1396C71.5203 11.1396 70.4003 12.0496 70.0703 13.2696L80.8003 23.9896V23.9996Z" fill="#34A853"/>
</svg>
