<svg width="26" height="26" viewBox="0 0 26 26" fill="none" xmlns="http://www.w3.org/2000/svg">
<rect width="26" height="26" rx="4" fill="white"/>
<path d="M21.4155 15.735C21.4158 16.5547 21.3588 17.3799 21.0873 18.1628C20.8099 18.9621 20.3791 19.6548 19.7287 20.2062C19.1228 20.7201 18.4299 21.0225 17.6776 21.1846C17.2186 21.2834 16.7471 21.3147 16.2745 21.3382C15.719 21.3658 15.1641 21.3365 14.6103 21.3661C13.3881 21.4312 12.1656 21.3818 10.9434 21.3913C10.5322 21.3944 10.1214 21.3706 9.71056 21.3569C9.10726 21.3372 8.49832 21.2973 7.91792 21.1182C7.30002 20.9275 6.71431 20.6615 6.21189 20.2178C5.71047 19.7751 5.30827 19.2608 5.04014 18.6461C4.84169 18.1911 4.70531 17.7126 4.63462 17.2137C4.57489 16.7928 4.55166 16.3719 4.53606 15.9479C4.4677 14.0877 4.51947 12.2269 4.50918 10.3668C4.50852 10.2707 4.50354 10.1744 4.50586 10.0783C4.51549 9.6901 4.51184 9.30084 4.54204 8.91431C4.58783 8.32718 4.67843 7.74721 4.86758 7.18631C5.12045 6.43709 5.53194 5.7965 6.10371 5.26693C6.70502 4.70977 7.42148 4.38386 8.20563 4.20609C8.73128 4.08689 9.2639 4.02695 9.80315 4.03206C9.85691 4.0324 9.92394 4.06884 9.96775 4.00039H15.8936C15.9622 4.06986 16.0489 4.03274 16.1252 4.03342C17.0593 4.04058 17.9699 4.18021 18.8208 4.5899C19.1523 4.74962 19.4602 4.96247 19.7453 5.21039C20.0606 5.4842 20.3307 5.79377 20.5593 6.14216C20.9287 6.70511 21.1391 7.33241 21.2595 7.99718C21.3505 8.4978 21.377 9.00081 21.3929 9.50892C21.459 11.5843 21.4142 13.66 21.4155 15.7353V15.735ZM19.9212 11.4154C19.9139 10.8569 19.9262 10.297 19.8946 9.73982C19.8561 9.06075 19.8631 8.3718 19.6338 7.71793C19.287 6.72928 18.62 6.09074 17.6364 5.79854C17.1071 5.64154 16.5659 5.61157 16.0177 5.59114C14.9554 5.55129 13.8932 5.5799 13.0217 5.56321C11.9927 5.56321 11.1538 5.55606 10.3152 5.56628C9.88976 5.57139 9.46201 5.58467 9.04023 5.63711C8.47642 5.70727 7.92423 5.85201 7.44371 6.17996C6.94096 6.52291 6.57693 6.99185 6.36089 7.57421C6.2411 7.89774 6.17008 8.23319 6.12395 8.57681C6.07119 8.97084 6.06887 9.36555 6.06024 9.76162C6.02871 11.2175 6.03767 12.6737 6.03767 14.1296C6.03767 14.5087 6.01146 14.8887 6.0327 15.2664C6.06289 15.8075 6.05227 16.3524 6.13125 16.8898C6.17074 17.1585 6.23545 17.4232 6.3224 17.683C6.65989 18.6917 7.35113 19.3095 8.33506 19.5843C8.64799 19.6719 8.97486 19.7178 9.30505 19.7413C9.62329 19.7642 9.94087 19.7458 10.2574 19.7672C11.5507 19.8551 12.8452 19.8047 14.1391 19.8098C14.5519 19.8115 14.9677 19.8316 15.3779 19.7931C15.8418 19.7495 16.3067 19.7938 16.7696 19.7345C17.3839 19.6555 17.9892 19.5316 18.5112 19.1798C19.0186 18.8378 19.3982 18.3658 19.5993 17.7661C19.7267 17.3864 19.7967 16.9934 19.8349 16.5925C19.9069 15.8341 19.8737 15.0733 19.9056 14.3145C19.9461 13.3477 19.9335 12.3815 19.9212 11.4157V11.4154Z" fill="black"/>
<path d="M12.5132 17.1484C11.7041 17.1355 10.6469 16.6965 9.81726 15.7831C8.74241 14.6 8.3724 13.1956 8.73876 11.6096C8.93886 10.7436 9.37458 10.01 10.0081 9.40755C10.7896 8.66479 11.7241 8.24692 12.7856 8.21832C15.3034 8.15089 17.4491 10.2 17.3064 12.9633C17.1926 15.1654 15.46 17.1447 12.5132 17.1484ZM13.1742 9.79851C11.432 9.66637 10.1007 11.1536 10.1309 12.7065C10.1621 14.3051 11.3484 15.5328 12.8321 15.5822C14.5368 15.6387 15.7746 14.2711 15.7875 12.6847C15.7796 11.0725 14.482 9.89761 13.1742 9.79851Z" fill="black"/>
<path d="M17.5566 18.3671C17.0054 18.3923 16.4864 17.9564 16.4844 17.4973C16.4811 16.7559 16.8557 16.305 17.4806 16.2986C18.0016 16.2662 18.4967 16.7631 18.503 17.2882C18.511 17.9615 18.057 18.344 17.5566 18.3668V18.3671Z" fill="black"/>
</svg>
