<svg width="26" height="26" viewBox="0 0 26 26" fill="none" xmlns="http://www.w3.org/2000/svg">
<rect width="26" height="26" rx="4" fill="white"/>
<path fill-rule="evenodd" clip-rule="evenodd" d="M8.01507 21.7143V9.95238H4.30078V21.7143H8.01507ZM6.15792 5C5.04364 5 4.30078 5.66238 4.30078 6.52905C4.30078 7.39571 5.04364 8.09524 6.15792 8.09524C7.32173 8.09524 8.01507 7.39571 8.01507 6.52905C7.97173 5.66238 7.27221 5 6.15792 5ZM17.9198 21.7143H21.6341V15.0657C21.6341 11.6424 19.6408 9.95238 17.1832 9.95238C14.7813 9.95238 13.5865 11.5371 13.5865 11.5371V9.95238H9.87221V21.7143H13.5865V15.5238C13.5865 14.2981 14.2055 13.0229 15.7036 13.0229H15.7532C17.3008 13.0476 17.9198 14.2857 17.9198 15.5238V21.7143Z" fill="black"/>
</svg>
