<svg width="149" height="48" viewBox="0 0 149 48" fill="none" xmlns="http://www.w3.org/2000/svg">
<g clip-path="url(#clip0_850_1725)">
<path d="M113.45 30.9229C113.39 28.7958 112.75 27.2563 111.54 26.3143C110.35 25.4331 108.49 24.9976 105.87 24.9976C101.99 25.0279 98.3498 26.3649 98.3498 26.3649L97.8398 30.5278L98.6898 30.1531C99.8398 29.6466 101 29.2516 102.15 28.968C103.23 28.7047 104.29 28.573 105.3 28.573C106.7 28.573 107.67 28.7553 108.27 29.1402C108.81 29.4745 109.09 30.0011 109.11 30.7304C109.13 31.328 108.91 31.8142 108.45 32.2396C108.1 32.5536 107.26 33.0904 105.26 33.8399L100.7 35.5213C98.9598 36.1695 97.6898 36.99 96.9298 37.9522C96.1398 38.9448 95.7698 40.221 95.8098 41.7302C95.8598 43.5027 96.5698 44.941 97.9098 45.9944C98.4298 46.3995 99.0598 46.7439 99.6698 46.987C100.54 47.3314 101.6 47.5036 102.53 47.5846C104.88 47.777 107.06 47.0782 108.79 45.6905L108.64 47.1389H113.37V43.0064L113.46 32.5941V30.9229H113.45ZM104.92 43.7965C104.49 43.8471 104.05 43.8674 103.62 43.8674C102.54 43.8674 101.72 43.6547 101.17 43.2495C100.65 42.8545 100.39 42.2974 100.37 41.5479C100.35 40.8591 100.53 40.2818 100.91 39.8361C101.29 39.3702 102.04 38.9144 103.15 38.489L107.52 36.8178C108.16 36.5544 108.61 36.3316 108.98 36.1088L109.11 36.0379L108.94 42.419L108.06 42.9254C107.78 43.0672 106.14 43.6547 104.92 43.7965Z" fill="#00ABE4"/>
<path d="M93.12 42.1456V42.0342L92.51 42.3279C91.49 42.8343 90.44 43.2294 89.41 43.5028C87.8 43.9384 86.06 44.1004 84.45 43.6142C83.91 43.4522 83.4 43.199 82.94 42.8749C82.5 42.571 82.13 42.1962 81.82 41.7911C80.53 40.0591 80.27 37.6383 80.38 35.5113C80.47 33.8603 80.82 32.108 81.82 30.7812C82.13 30.376 82.51 30.0013 82.94 29.6974C83.4 29.3733 83.91 29.1201 84.45 28.958C86.71 28.2794 89.07 28.8263 91.23 29.586C91.95 29.8392 92.77 30.1633 93.68 30.5685L94.43 26.3043C92.47 25.6662 90.43 25.2813 88.39 25.0787C86.59 24.9065 84.77 24.9977 83.04 25.5446C81.39 26.0713 80.02 26.9525 78.95 28.1882C76.92 30.5381 76.32 34.0122 76.49 37.0812C76.63 39.5324 77.33 42.3178 78.84 44.2321C80.34 46.1464 82.58 47.139 84.89 47.4024C87.24 47.6657 89.52 47.4024 91.81 46.8048C92.69 46.5718 93.56 46.2882 94.41 45.954L94.5 45.9236L94.45 45.8426C93.72 44.617 93.28 43.3712 93.13 42.1355" fill="#00ABE4"/>
<path d="M131.48 25.8384C130.46 25.5548 129.4 25.3522 128.32 25.2205C127.15 25.0584 125.91 24.9977 124.54 25.0281C121.83 25.0888 119.91 25.5446 118.67 26.4562C117.42 27.3982 116.74 28.9479 116.66 31.0445V32.7056V43.0774V47.1289H121.43L121.37 46.3693C121.29 45.7312 121.2 43.9181 121.2 43.9181C121.19 43.594 121.18 43.2598 121.17 42.9053L120.88 33.9515C120.85 33.0297 120.86 32.0473 120.95 31.2066C121.03 30.7609 121.26 30.0722 121.9 29.4948C124.33 27.4286 128.6 29.4138 128.6 29.4138L128.85 28.7858C129.21 28.1882 129.61 27.6311 130.08 27.1146C130.5 26.6588 130.98 26.2232 131.5 25.8384" fill="#00ABE4"/>
<path d="M144.75 19.1633C144.78 19.5482 144.87 21.817 144.89 25.4735C143.94 25.3013 143.17 25.1697 142.21 25.0785C140.36 24.9063 138.48 24.9975 136.69 25.5444C134.99 26.061 133.57 26.9523 132.47 28.188C130.37 30.5379 129.75 34.012 129.92 37.081C130.06 39.5322 130.79 42.3176 132.34 44.2319C133.89 46.1462 136.2 47.1388 138.59 47.4022C138.7 47.4123 139.39 47.463 139.62 47.4832C140.21 47.5237 140.81 47.544 141.4 47.5237C142.2 47.5035 142.99 47.4225 143.78 47.3009C144.07 47.2604 144.37 47.1996 144.67 47.1186C144.95 47.0477 145.22 46.9565 145.49 46.8552L146.26 46.5311C146.95 46.1969 147.61 45.7411 148.06 45.1435L148.37 44.6472C148.55 44.2724 148.66 43.8571 148.66 43.3811V19.1431H144.74L144.75 19.1633ZM138.15 43.6141C137.59 43.452 137.07 43.1988 136.59 42.8747C136.14 42.5607 135.75 42.196 135.43 41.7808C134.1 40.0589 133.83 37.628 133.94 35.5111C134.03 33.8601 134.39 32.1078 135.43 30.781C135.75 30.3657 136.14 30.0011 136.59 29.6972C137.07 29.3731 137.59 29.1199 138.15 28.9578C140.4 28.2994 142.59 28.9578 144.76 29.6668L144.78 42.0137C144.78 42.743 143.94 43.1785 143.41 43.4216C142.65 43.766 141.18 43.8774 141.18 43.8774C140.16 43.9686 139.14 43.9078 138.15 43.6242" fill="#00ABE4"/>
<path d="M41.3098 35.8149C40.0598 34.7717 38.4398 34.093 37.0198 33.4954C35.0498 32.675 33.3598 31.9559 33.3598 30.6391C33.3598 30.0618 33.6298 29.5351 34.1098 29.1502C34.6198 28.7451 35.3298 28.5222 36.1098 28.5222C38.5698 28.5222 40.5298 30.2846 40.5498 30.2948L41.0298 30.7404L43.2098 26.6079L42.9598 26.3446C42.8598 26.2433 40.5698 23.8428 36.1498 23.8428C34.0298 23.8428 32.0698 24.5315 30.6498 25.7774C29.1998 27.0434 28.4098 28.7957 28.4098 30.6999C28.4098 32.6041 29.1198 34.0626 30.5798 35.2984C31.8098 36.3315 33.3398 37 34.8198 37.6482C36.8498 38.5294 38.5898 39.2891 38.5898 40.6564C38.5898 41.6896 37.8998 42.7936 35.9598 42.7936C33.1798 42.7936 30.9498 40.6463 30.9298 40.6261L30.5098 40.2108L27.7998 44.0091L28.0698 44.3129C28.0698 44.3129 28.7998 45.1232 30.1098 45.9031C31.3198 46.6223 33.2998 47.4629 35.8898 47.4629C38.1598 47.4629 40.0898 46.7539 41.4798 45.4271C42.7898 44.1711 43.5098 42.4391 43.5098 40.545C43.5098 38.651 42.7898 37.0405 41.2998 35.7947" fill="white"/>
<path d="M69.27 24.187H64.2V47.1387H69.27V24.187Z" fill="white"/>
<path d="M61.0199 36.8277C60.5199 36.0275 59.8299 35.3894 59.0099 34.964C60.3299 33.8903 61.0799 32.2393 61.0799 30.3655C61.0799 28.4917 60.3599 26.8711 59.0099 25.7772C57.7299 24.7441 55.9599 24.187 53.8899 24.187H45.6299V47.1387H53.9799C56.1999 47.1387 58.1099 46.5715 59.5199 45.4978C61.1199 44.2824 61.9599 42.4693 61.9599 40.2512C61.9599 38.9952 61.6299 37.8101 61.0199 36.8277ZM54.2799 42.8441H50.4199V28.4917H53.8299C55.3599 28.4917 56.2299 29.3527 56.2299 30.8618C56.2299 32.371 55.4399 33.1509 53.8899 33.1509H52.7099V37.3746H54.2799C55.1399 37.3746 55.8499 37.6481 56.3499 38.1646C56.8699 38.7015 57.0799 39.2383 57.0799 40.0081C57.0799 41.7603 56.0099 42.8441 54.2799 42.8441Z" fill="white"/>
<path d="M12.6199 23.7822C6.1499 23.7822 0.899902 29.1099 0.899902 35.6733C0.899902 41.8316 5.5099 46.896 11.4199 47.5037V38.8639C10.1499 38.3777 9.2499 37.1319 9.2499 35.6733C9.2499 33.7894 10.7599 32.26 12.6199 32.26C14.4799 32.26 15.9899 33.7894 15.9899 35.6733C15.9899 37.1319 15.0799 38.3777 13.8199 38.8639V47.5037C19.7299 46.896 24.3399 41.8316 24.3399 35.6733C24.3399 29.1099 19.0999 23.7822 12.6199 23.7822Z" fill="#00ABE4"/>
<path d="M4.59402 11V2.24004H7.89842C8.48003 2.24004 8.9242 2.26793 9.23094 2.3237C9.66117 2.39541 10.0217 2.53284 10.3125 2.736C10.6033 2.93518 10.8363 3.21603 11.0116 3.57854C11.1909 3.94105 11.2805 4.33941 11.2805 4.77362C11.2805 5.51855 11.0435 6.14996 10.5694 6.66783C10.0954 7.18171 9.23891 7.43865 8 7.43865H5.75325V11H4.59402ZM5.75325 6.40491H8.01793C8.76685 6.40491 9.29866 6.26548 9.61336 5.98663C9.92807 5.70778 10.0854 5.31539 10.0854 4.80947C10.0854 4.44298 9.99181 4.13027 9.80458 3.87133C9.62133 3.60841 9.37833 3.43513 9.07558 3.35147C8.88038 3.29968 8.51986 3.27379 7.99403 3.27379H5.75325V6.40491ZM12.4039 6.73356C12.4039 5.27954 12.7943 4.14222 13.5751 3.32159C14.3559 2.49699 15.3637 2.08468 16.5986 2.08468C17.4073 2.08468 18.1363 2.27789 18.7856 2.6643C19.435 3.05071 19.9289 3.59049 20.2675 4.28364C20.6101 4.9728 20.7814 5.75558 20.7814 6.63197C20.7814 7.52032 20.6021 8.31505 20.2436 9.01616C19.8851 9.71728 19.3772 10.2491 18.7199 10.6116C18.0626 10.9701 17.3535 11.1494 16.5926 11.1494C15.768 11.1494 15.0311 10.9502 14.3817 10.5518C13.7324 10.1535 13.2404 9.60972 12.9058 8.92056C12.5712 8.23139 12.4039 7.50239 12.4039 6.73356ZM13.599 6.75148C13.599 7.80714 13.8818 8.63971 14.4475 9.2492C15.0171 9.85471 15.7302 10.1575 16.5867 10.1575C17.4591 10.1575 18.1761 9.85073 18.7378 9.23725C19.3035 8.62378 19.5863 7.75336 19.5863 6.626C19.5863 5.91293 19.4648 5.29149 19.2218 4.76167C18.9828 4.22787 18.6303 3.81556 18.1642 3.52476C17.7021 3.22997 17.1822 3.08258 16.6046 3.08258C15.784 3.08258 15.0769 3.36541 14.4833 3.93109C13.8938 4.49278 13.599 5.43291 13.599 6.75148ZM23.8109 11L21.4865 2.24004H22.6756L24.0081 7.98242C24.1515 8.58394 24.275 9.18148 24.3786 9.77504C24.6017 8.83889 24.7332 8.29911 24.773 8.1557L26.4401 2.24004H27.8384L29.0932 6.6738C29.4079 7.77328 29.635 8.80702 29.7744 9.77504C29.886 9.22132 30.0314 8.58593 30.2106 7.86888L31.585 2.24004H32.7502L30.348 11H29.2306L27.3842 4.32546C27.2289 3.76776 27.1373 3.42517 27.1094 3.29769C27.0178 3.70004 26.9321 4.04263 26.8524 4.32546L24.9941 11H23.8109ZM33.8616 11V2.24004H40.1955V3.27379H35.0208V5.95675H39.8669V6.98452H35.0208V9.96625H40.3987V11H33.8616ZM42.018 11V2.24004H45.902C46.6828 2.24004 47.2764 2.31972 47.6827 2.47906C48.089 2.63442 48.4137 2.91128 48.6567 3.30964C48.8997 3.708 49.0212 4.14819 49.0212 4.63021C49.0212 5.25165 48.82 5.7755 48.4177 6.20174C48.0154 6.62799 47.3939 6.89887 46.5534 7.0144C46.8601 7.16179 47.0931 7.30719 47.2525 7.4506C47.5911 7.76133 47.9118 8.14973 48.2145 8.61581L49.7383 11H48.2803L47.121 9.1775C46.7824 8.65166 46.5036 8.24932 46.2845 7.97047C46.0654 7.69161 45.8682 7.49642 45.6929 7.38488C45.5216 7.27333 45.3463 7.19565 45.1671 7.15183C45.0356 7.12395 44.8205 7.11001 44.5217 7.11001H43.1773V11H42.018ZM43.1773 6.10614H45.669C46.1988 6.10614 46.6131 6.05236 46.9119 5.9448C47.2107 5.83326 47.4377 5.65798 47.5931 5.41896C47.7485 5.17596 47.8261 4.91305 47.8261 4.63021C47.8261 4.21591 47.6748 3.87532 47.372 3.60841C47.0732 3.34151 46.5992 3.20806 45.9499 3.20806H43.1773V6.10614ZM50.8676 11V2.24004H57.2016V3.27379H52.0268V5.95675H56.8729V6.98452H52.0268V9.96625H57.4047V11H50.8676ZM59.0061 11V2.24004H62.0237C62.7049 2.24004 63.2248 2.28187 63.5833 2.36553C64.0852 2.48105 64.5135 2.69019 64.868 2.99295C65.3301 3.38334 65.6747 3.88328 65.9018 4.49278C66.1328 5.09828 66.2483 5.79143 66.2483 6.57222C66.2483 7.23748 66.1707 7.82706 66.0153 8.34094C65.8599 8.85483 65.6607 9.28107 65.4177 9.61968C65.1747 9.9543 64.9078 10.2192 64.617 10.4144C64.3302 10.6056 63.9817 10.751 63.5713 10.8506C63.165 10.9502 62.6969 11 62.1671 11H59.0061ZM60.1654 9.96625H62.0357C62.6133 9.96625 63.0654 9.91247 63.3921 9.80492C63.7227 9.69736 63.9856 9.54598 64.1808 9.35079C64.4557 9.07592 64.6688 8.70743 64.8202 8.24533C64.9756 7.77925 65.0532 7.21557 65.0532 6.55429C65.0532 5.63806 64.9019 4.93496 64.5991 4.44497C64.3003 3.951 63.9358 3.62036 63.5056 3.45305C63.1949 3.33354 62.695 3.27379 62.0058 3.27379H60.1654V9.96625ZM71.2079 11V2.24004H74.4944C75.1637 2.24004 75.6994 2.32968 76.1018 2.50894C76.5081 2.68422 76.8248 2.95709 77.0519 3.32757C77.2829 3.69406 77.3985 4.07848 77.3985 4.48082C77.3985 4.85528 77.2969 5.20783 77.0937 5.53847C76.8905 5.86911 76.5838 6.13601 76.1735 6.33918C76.7033 6.49454 77.1096 6.75945 77.3925 7.13391C77.6793 7.50837 77.8227 7.95055 77.8227 8.46045C77.8227 8.87076 77.7351 9.25319 77.5598 9.60773C77.3885 9.95829 77.1754 10.2292 76.9204 10.4204C76.6655 10.6116 76.3448 10.757 75.9584 10.8566C75.576 10.9522 75.1059 11 74.5482 11H71.2079ZM72.3672 5.9209H74.2614C74.7752 5.9209 75.1437 5.88704 75.3668 5.81932C75.6616 5.73168 75.8827 5.58628 76.0301 5.38311C76.1815 5.17995 76.2572 4.925 76.2572 4.61826C76.2572 4.32746 76.1874 4.0725 76.048 3.85341C75.9086 3.63032 75.7094 3.47895 75.4505 3.39927C75.1915 3.31562 74.7474 3.27379 74.118 3.27379H72.3672V5.9209ZM72.3672 9.96625H74.5482C74.9226 9.96625 75.1856 9.95231 75.3369 9.92443C75.6038 9.87662 75.8269 9.79695 76.0062 9.68541C76.1854 9.57387 76.3328 9.41253 76.4484 9.2014C76.5639 8.98629 76.6217 8.7393 76.6217 8.46045C76.6217 8.13379 76.538 7.85096 76.3707 7.61194C76.2034 7.36894 75.9703 7.19964 75.6716 7.10403C75.3768 7.00444 74.9505 6.95465 74.3928 6.95465H72.3672V9.96625ZM81.8197 11V7.36133L78.5092 2.41016H79.892L81.5854 5C81.8979 5.48438 82.1889 5.96875 82.4584 6.45312C82.7162 6.00391 83.0287 5.49805 83.3959 4.93555L85.06 2.41016H86.3842L82.9565 7.36133V11H81.8197Z" fill="white"/>
</g>
<defs>
<clipPath id="clip0_850_1725">
<rect width="149" height="48" fill="white"/>
</clipPath>
</defs>
</svg>
