<svg width="111" height="34" viewBox="0 0 111 34" fill="none" xmlns="http://www.w3.org/2000/svg">
<path d="M84.3944 21.6418C84.3494 20.067 83.8695 18.9272 82.9621 18.2297C82.0697 17.5773 80.6749 17.2549 78.7102 17.2549C75.8006 17.2774 73.071 18.2672 73.071 18.2672L72.6885 21.3493L73.326 21.0719C74.1883 20.6969 75.0582 20.4044 75.9206 20.1945C76.7305 19.9995 77.5254 19.902 78.2828 19.902C79.3326 19.902 80.06 20.037 80.51 20.322C80.9149 20.5694 81.1249 20.9594 81.1399 21.4993C81.1549 21.9417 80.9899 22.3017 80.6449 22.6166C80.3825 22.8491 79.7526 23.2466 78.2528 23.8015L74.8332 25.0463C73.5284 25.5262 72.5761 26.1337 72.0061 26.8461C71.4137 27.5809 71.1363 28.5258 71.1663 29.6432C71.2038 30.9555 71.7362 32.0203 72.741 32.8002C73.131 33.1002 73.6034 33.3552 74.0608 33.5351C74.7133 33.7901 75.5081 33.9176 76.2056 33.9776C77.9678 34.12 79.6026 33.6026 80.8999 32.5753L80.7874 33.6476H84.3344V30.588L84.4019 22.8791V21.6418H84.3944ZM77.9978 31.173C77.6753 31.2104 77.3454 31.2254 77.0229 31.2254C76.2131 31.2254 75.5981 31.068 75.1857 30.768C74.7957 30.4755 74.6008 30.0631 74.5858 29.5082C74.5708 28.9983 74.7058 28.5708 74.9907 28.2409C75.2757 27.8959 75.8381 27.5585 76.6705 27.2435L79.9475 26.0062C80.4275 25.8112 80.7649 25.6462 81.0424 25.4812L81.1399 25.4287L81.0124 30.1531L80.3525 30.528C80.1425 30.633 78.9127 31.068 77.9978 31.173Z" fill="#00ABE4"/>
<path d="M69.1553 29.9577V29.8752L68.6979 30.0927C67.933 30.4676 67.1456 30.7601 66.3732 30.9625C65.1659 31.285 63.8611 31.405 62.6537 31.045C62.2488 30.925 61.8663 30.7376 61.5214 30.4976C61.1914 30.2726 60.914 29.9952 60.6815 29.6952C59.7141 28.4129 59.5192 26.6206 59.6016 25.0459C59.6691 23.8235 59.9316 22.5262 60.6815 21.5438C60.914 21.2439 61.1989 20.9664 61.5214 20.7415C61.8663 20.5015 62.2488 20.314 62.6537 20.194C64.3485 19.6916 66.1182 20.0965 67.738 20.659C68.2779 20.8464 68.8929 21.0864 69.5753 21.3864L70.1377 18.2293C68.6679 17.7569 67.1381 17.4719 65.6083 17.3219C64.2585 17.1945 62.8937 17.2619 61.5964 17.6669C60.359 18.0568 59.3317 18.7092 58.5293 19.6241C57.007 21.3639 56.5571 23.936 56.6845 26.2082C56.7895 28.0229 57.3145 30.0852 58.4468 31.5025C59.5717 32.9198 61.2514 33.6547 62.9837 33.8496C64.7459 34.0446 66.4557 33.8496 68.173 33.4072C68.8329 33.2347 69.4853 33.0248 70.1227 32.7773L70.1902 32.7548L70.1527 32.6948C69.6053 31.7874 69.2753 30.8651 69.1628 29.9502" fill="#00ABE4"/>
<path d="M97.9181 17.8868C97.1533 17.6768 96.3584 17.5268 95.5485 17.4293C94.6711 17.3093 93.7412 17.2643 92.7139 17.2868C90.6816 17.3318 89.2419 17.6693 88.312 18.3442C87.3746 19.0416 86.8647 20.1889 86.8047 21.7412V22.9711V30.65V33.6496H90.3817L90.3367 33.0872C90.2767 32.6147 90.2092 31.2724 90.2092 31.2724C90.2017 31.0324 90.1942 30.785 90.1867 30.5225L89.9692 23.8934C89.9468 23.211 89.9543 22.4836 90.0217 21.8612C90.0817 21.5313 90.2542 21.0213 90.7341 20.5939C92.5564 19.0641 95.7584 20.5339 95.7584 20.5339L95.9459 20.069C96.2159 19.6265 96.5158 19.2141 96.8683 18.8316C97.1832 18.4942 97.5432 18.1717 97.9331 17.8868" fill="#00ABE4"/>
<path d="M107.871 12.9437C107.894 13.2287 107.961 14.9084 107.976 17.6156C107.264 17.4881 106.687 17.3906 105.967 17.3231C104.579 17.1956 103.17 17.2631 101.827 17.6681C100.552 18.0505 99.4876 18.7104 98.6627 19.6253C97.0879 21.365 96.623 23.9372 96.7504 26.2094C96.8554 28.0241 97.4028 30.0863 98.5652 31.5036C99.7275 32.9209 101.46 33.6558 103.252 33.8508C103.335 33.8583 103.852 33.8958 104.024 33.9108C104.467 33.9408 104.917 33.9558 105.359 33.9408C105.959 33.9258 106.552 33.8658 107.144 33.7758C107.361 33.7458 107.586 33.7008 107.811 33.6408C108.021 33.5883 108.224 33.5209 108.426 33.4459L109.004 33.2059C109.521 32.9584 110.016 32.621 110.354 32.1785L110.586 31.8111C110.721 31.5336 110.803 31.2262 110.803 30.8737V12.9287H107.864L107.871 12.9437ZM102.922 31.0462C102.502 30.9262 102.112 30.7387 101.752 30.4988C101.415 30.2663 101.122 29.9963 100.882 29.6889C99.885 28.4141 99.6825 26.6143 99.765 25.047C99.8325 23.8247 100.102 22.5274 100.882 21.545C101.122 21.2376 101.415 20.9676 101.752 20.7426C102.112 20.5027 102.502 20.3152 102.922 20.1952C104.609 19.7078 106.252 20.1952 107.879 20.7201L107.894 29.8614C107.894 30.4013 107.264 30.7237 106.867 30.9037C106.297 31.1587 105.194 31.2412 105.194 31.2412C104.429 31.3087 103.664 31.2637 102.922 31.0537" fill="#00ABE4"/>
<path d="M30.2991 25.272C29.3617 24.4996 28.1469 23.9971 27.082 23.5547C25.6047 22.9473 24.3374 22.4149 24.3374 21.44C24.3374 21.0126 24.5399 20.6226 24.8998 20.3377C25.2823 20.0377 25.8147 19.8727 26.3996 19.8727C28.2443 19.8727 29.7141 21.1775 29.7291 21.185L30.0891 21.515L31.7239 18.4554L31.5364 18.2604C31.4614 18.1855 29.7441 16.4082 26.4296 16.4082C24.8398 16.4082 23.37 16.9181 22.3052 17.8405C21.2178 18.7779 20.6254 20.0752 20.6254 21.485C20.6254 22.8948 21.1578 23.9747 22.2527 24.8895C23.1751 25.6544 24.3224 26.1493 25.4322 26.6293C26.9545 27.2817 28.2593 27.8441 28.2593 28.8565C28.2593 29.6214 27.7419 30.4388 26.2871 30.4388C24.2024 30.4388 22.5301 28.849 22.5151 28.834L22.2002 28.5265L20.168 31.3386L20.3704 31.5636C20.3704 31.5636 20.9179 32.1635 21.9002 32.7409C22.8076 33.2734 24.2924 33.8958 26.2346 33.8958C27.9369 33.8958 29.3842 33.3708 30.4265 32.3885C31.4089 31.4586 31.9488 30.1763 31.9488 28.774C31.9488 27.3717 31.4089 26.1793 30.2916 25.257" fill="#2E2D79"/>
<path d="M51.2746 16.6611H47.4727V33.6538H51.2746V16.6611Z" fill="#2E2D79"/>
<path d="M45.0839 26.0198C44.7089 25.4274 44.1915 24.955 43.5766 24.64C44.5664 23.8451 45.1289 22.6228 45.1289 21.2355C45.1289 19.8482 44.5889 18.6484 43.5766 17.8385C42.6167 17.0736 41.2894 16.6611 39.7371 16.6611H33.543V33.6538H39.8046C41.4694 33.6538 42.9017 33.2338 43.959 32.4389C45.1589 31.5391 45.7888 30.1968 45.7888 28.5545C45.7888 27.6246 45.5413 26.7472 45.0839 26.0198ZM40.0296 30.4742H37.135V19.8482H39.6921C40.8395 19.8482 41.4919 20.4856 41.4919 21.6029C41.4919 22.7203 40.8994 23.2977 39.7371 23.2977H38.8522V26.4248H40.0296C40.6745 26.4248 41.2069 26.6273 41.5819 27.0097C41.9718 27.4071 42.1293 27.8046 42.1293 28.3745C42.1293 29.6718 41.3269 30.4742 40.0296 30.4742Z" fill="#2E2D79"/>
<path d="M8.78878 16.3555C3.93695 16.3555 0 20.2999 0 25.1592C0 29.7186 3.45702 33.4681 7.88891 33.9255V27.5289C6.93654 27.169 6.26163 26.2466 6.26163 25.1667C6.26163 23.7719 7.39397 22.6396 8.78878 22.6396C10.1836 22.6396 11.3159 23.7719 11.3159 25.1667C11.3159 26.2466 10.6335 27.169 9.68866 27.5289V33.9255C14.1205 33.4756 17.5776 29.7261 17.5776 25.1667C17.5776 20.3074 13.6481 16.363 8.78878 16.363" fill="#00ABE4"/>
<path d="M0 7.74621V0.134766H2.99208C3.51701 0.134766 3.92196 0.157262 4.19942 0.209755C4.58936 0.269747 4.91182 0.38973 5.17428 0.562206C5.43675 0.734682 5.64672 0.982148 5.81169 1.2971C5.96917 1.61206 6.05166 1.95701 6.05166 2.33946C6.05166 2.98437 5.83419 3.53179 5.40675 3.98173C4.97931 4.43167 4.20692 4.65664 3.08207 4.65664H1.04985V7.75371H0V7.74621ZM1.04985 3.74926H3.09707C3.77198 3.74926 4.25191 3.62928 4.53687 3.38931C4.82183 3.14935 4.96431 2.80439 4.96431 2.36946C4.96431 2.0545 4.88182 1.77704 4.71685 1.55207C4.55187 1.3271 4.3269 1.17712 4.05694 1.10213C3.87696 1.05714 3.55451 1.03464 3.08207 1.03464H1.04985V3.75676V3.74926Z" fill="#7D28D3"/>
<path d="M7.11687 4.04194C7.11687 2.77461 7.46933 1.79225 8.17423 1.07235C8.87913 0.35995 9.794 0 10.9113 0C11.6387 0 12.2987 0.164977 12.8911 0.50243C13.476 0.839883 13.9259 1.30482 14.2334 1.90474C14.5408 2.50465 14.6983 3.18706 14.6983 3.95195C14.6983 4.71685 14.5333 5.41425 14.2109 6.02166C13.8884 6.62908 13.431 7.09402 12.8311 7.40897C12.2387 7.72393 11.5938 7.88141 10.9038 7.88141C10.1615 7.88141 9.49404 7.70893 8.90163 7.36398C8.31671 7.01903 7.86677 6.54659 7.56681 5.94667C7.26685 5.34676 7.10938 4.71685 7.10938 4.04944L7.11687 4.04194ZM8.19672 4.05694C8.19672 4.97181 8.45169 5.69921 8.96912 6.22414C9.48654 6.74906 10.124 7.01903 10.9038 7.01903C11.6837 7.01903 12.3436 6.74906 12.8536 6.21664C13.3635 5.68421 13.6185 4.92682 13.6185 3.94445C13.6185 3.32204 13.506 2.78211 13.2885 2.32468C13.071 1.85974 12.7486 1.50729 12.3287 1.25233C11.9087 0.997361 11.4363 0.869879 10.9188 0.869879C10.1764 0.869879 9.53904 1.11734 9.00661 1.60478C8.47419 2.09221 8.20422 2.9096 8.20422 4.05694H8.19672Z" fill="#7D28D3"/>
<path d="M17.4549 7.74621L15.3477 0.134766H16.42L17.6273 5.12907C17.7548 5.654 17.8673 6.17143 17.9648 6.68886C18.1673 5.87897 18.2872 5.40654 18.3247 5.27905L19.832 0.134766H21.0994L22.2317 3.98923C22.5167 4.9416 22.7191 5.84147 22.8466 6.68136C22.9441 6.20142 23.0791 5.6465 23.2441 5.02409L24.4889 0.134766H25.5462L23.3715 7.74621H22.3592L20.6869 1.94202C20.5444 1.45458 20.4619 1.16212 20.4395 1.04964C20.357 1.40209 20.282 1.69455 20.207 1.94202L18.5272 7.74621H17.4549Z" fill="#7D28D3"/>
<path d="M26.5977 7.74621V0.134766H32.3269V1.03464H27.6475V3.36682H32.0344V4.25919H27.6475V6.85383H32.5143V7.75371H26.6052L26.5977 7.74621Z" fill="#7D28D3"/>
<path d="M34.015 7.74621V0.134766H37.5245C38.2294 0.134766 38.7693 0.202256 39.1368 0.337238C39.5042 0.472219 39.7967 0.712186 40.0142 1.06464C40.2316 1.41709 40.3441 1.79204 40.3441 2.21198C40.3441 2.7519 40.1641 3.20934 39.7967 3.57679C39.4292 3.94424 38.8743 4.1842 38.1094 4.28169C38.3869 4.40917 38.5969 4.53666 38.7393 4.66414C39.0468 4.9341 39.3318 5.27155 39.6092 5.6765L40.989 7.74621H39.6692L38.6194 6.16393C38.3119 5.70649 38.0644 5.35404 37.862 5.11408C37.6595 4.87411 37.487 4.70163 37.3295 4.60415C37.1721 4.50666 37.0146 4.43917 36.8496 4.40167C36.7296 4.37918 36.5346 4.36418 36.2647 4.36418H35.0499V7.74621H34H34.015ZM35.0649 3.4943H37.322C37.802 3.4943 38.1769 3.44931 38.4469 3.35182C38.7168 3.25433 38.9193 3.10435 39.0618 2.89438C39.2043 2.68441 39.2718 2.45944 39.2718 2.21198C39.2718 1.85203 39.1368 1.55957 38.8668 1.3271C38.5969 1.09463 38.1619 0.982148 37.577 0.982148H35.0724V3.5018L35.0649 3.4943Z" fill="#7D28D3"/>
<path d="M42.0508 7.74621V0.134766H47.78V1.03464H43.1006V3.36682H47.4875V4.25919H43.1006V6.85383H47.9675V7.75371H42.0583L42.0508 7.74621Z" fill="#7D28D3"/>
<path d="M49.4688 7.74621V0.134766H52.1984C52.8133 0.134766 53.2857 0.17226 53.6082 0.24725C54.0656 0.344737 54.4481 0.532211 54.7705 0.794674C55.1905 1.13213 55.4979 1.56707 55.7079 2.09199C55.9179 2.61692 56.0153 3.22434 56.0153 3.89924C56.0153 4.47666 55.9479 4.98659 55.8054 5.43653C55.6629 5.88647 55.4829 6.25392 55.2654 6.54638C55.048 6.83884 54.808 7.0713 54.5455 7.23628C54.2831 7.40126 53.9681 7.52874 53.6007 7.61873C53.2332 7.70872 52.8058 7.74621 52.3259 7.74621H49.4688ZM50.5186 6.84634H52.2134C52.7383 6.84634 53.1432 6.80134 53.4432 6.70386C53.7432 6.61387 53.9756 6.47889 54.1556 6.30641C54.4031 6.06644 54.598 5.74399 54.733 5.34654C54.868 4.9416 54.943 4.45417 54.943 3.87675C54.943 3.08186 54.808 2.46694 54.538 2.0395C54.2681 1.61206 53.9381 1.3271 53.5482 1.17712C53.2707 1.07214 52.8133 1.01964 52.1909 1.01964H50.5261V6.83884L50.5186 6.84634Z" fill="#7D28D3"/>
<path d="M60.5781 7.74621V0.134766H63.5477C64.1551 0.134766 64.6351 0.209755 65.0025 0.367233C65.37 0.524712 65.6549 0.757179 65.8649 1.07963C66.0749 1.40209 66.1723 1.73204 66.1723 2.08449C66.1723 2.40695 66.0824 2.71441 65.8949 3.00687C65.7074 3.29183 65.4375 3.5243 65.0625 3.70427C65.5424 3.83925 65.9099 4.07172 66.1649 4.39417C66.4198 4.71663 66.5548 5.10658 66.5548 5.54901C66.5548 5.90896 66.4798 6.23892 66.3223 6.54638C66.1649 6.85383 65.9699 7.0863 65.7449 7.25878C65.5199 7.43125 65.2275 7.55124 64.875 7.63373C64.5301 7.71621 64.1026 7.76121 63.6002 7.76121H60.5781V7.74621ZM61.628 3.32932H63.3377C63.8027 3.32932 64.1326 3.29933 64.3351 3.23934C64.6051 3.16435 64.8 3.03686 64.935 2.85689C65.07 2.67691 65.1375 2.45944 65.1375 2.18948C65.1375 1.93452 65.0775 1.71705 64.95 1.52207C64.8225 1.3271 64.6426 1.19962 64.4101 1.12463C64.1776 1.05714 63.7727 1.01964 63.2028 1.01964H61.6205V3.32182L61.628 3.32932ZM61.628 6.84633H63.6002C63.9377 6.84633 64.1776 6.83134 64.3126 6.80884C64.5526 6.76385 64.755 6.69635 64.92 6.59887C65.085 6.50138 65.2125 6.3589 65.3175 6.17893C65.4225 5.99145 65.4749 5.78148 65.4749 5.53402C65.4749 5.24906 65.4 5.00159 65.25 4.79162C65.1 4.58165 64.89 4.43167 64.6201 4.34918C64.3501 4.26669 63.9677 4.2217 63.4577 4.2217H61.628V6.83883V6.84633Z" fill="#7D28D3"/>
<path d="M70.2822 7.74621V4.52166L67.2227 0.134766H68.4975L70.0573 2.42945C70.3422 2.85689 70.6122 3.29183 70.8597 3.71927C71.0996 3.32182 71.3846 2.87189 71.722 2.37695L73.2593 0.142265H74.4816L71.3171 4.52916V7.75371H70.2672L70.2822 7.74621Z" fill="#7D28D3"/>
</svg>
