<svg width="100" height="25" viewBox="0 0 100 25" fill="none" xmlns="http://www.w3.org/2000/svg">
<path d="M4.23133 4.17338C3.61301 4.17338 3.0792 4.39582 2.63196 4.84274C2.18471 5.28967 1.96212 5.82721 1.96212 6.45332C1.96212 7.07943 2.18471 7.62315 2.63196 8.07832C3.0792 8.53348 3.61301 8.76209 4.23133 8.76209H10.7834C11.952 8.76209 12.9537 9.17401 13.7884 9.99989C14.6231 10.8258 15.0394 11.8267 15.0394 13.0027C15.0394 14.1787 14.6231 15.1818 13.7884 16.0056C12.9537 16.8294 11.952 17.2434 10.7834 17.2434H0.981056C0.79144 17.2434 0.624495 17.2001 0.478161 17.1136C0.331827 17.0271 0.216411 16.9118 0.129847 16.7656C0.043283 16.6193 0 16.4525 0 16.263C0 15.9891 0.0948091 15.7564 0.284425 15.5669C0.474041 15.3774 0.704876 15.2827 0.981056 15.2827H10.7834C11.4203 15.2827 11.9602 15.0602 12.4096 14.6133C12.8589 14.1664 13.0794 13.6288 13.0794 13.0027C13.0794 12.3766 12.8547 11.8391 12.4096 11.3922C11.9623 10.9452 11.4203 10.7228 10.7834 10.7228H4.23133C3.06065 10.7228 2.06517 10.3068 1.23869 9.47264C0.412208 8.63852 0 7.63757 0 6.4698C0 5.30202 0.412208 4.30108 1.23869 3.46695C2.06517 2.63283 3.06065 2.2168 4.23133 2.2168H4.94033C5.07842 2.2168 5.2062 2.24357 5.3278 2.293C5.44734 2.34449 5.5504 2.41451 5.63696 2.49896C5.72352 2.58546 5.79154 2.68844 5.84306 2.80789C5.89459 2.92941 5.92138 3.0571 5.92138 3.19509C5.92138 3.47107 5.82658 3.70174 5.63696 3.89122C5.44734 4.0807 5.21444 4.17544 4.94033 4.17544H4.23133V4.17338Z" fill="#9F73FD"/>
<path d="M8.26231 4.17696C8.12422 4.17696 7.99643 4.15017 7.87483 4.09864C7.75529 4.04711 7.65224 3.9791 7.56567 3.89253C7.47911 3.80597 7.41109 3.70292 7.35957 3.58338C7.30804 3.46178 7.28125 3.33399 7.28125 3.1959C7.28125 2.91972 7.37606 2.68888 7.56567 2.49927C7.75529 2.30965 7.98819 2.21484 8.26231 2.21484H14.058C14.2311 2.21484 14.3939 2.25812 14.5485 2.34469C14.7031 2.43125 14.8247 2.55079 14.9092 2.70537C14.9957 2.85995 15.039 3.02277 15.039 3.1959C15.039 3.47002 14.9442 3.70292 14.7546 3.89253C14.565 4.08215 14.3341 4.17696 14.058 4.17696H8.26231Z" fill="#FF6699"/>
<path d="M29.2581 1.80566C30.4267 1.80566 31.4284 2.2217 32.2631 3.05582C33.0978 3.88994 33.5142 4.89501 33.5142 6.07102C33.5142 7.24703 33.0978 8.25004 32.2631 9.07387C31.4284 9.89769 30.4267 10.3117 29.2581 10.3117H20.4348C20.4348 10.5876 20.3358 10.8204 20.138 11.0099C19.9401 11.1993 19.7072 11.2941 19.4413 11.2941C19.1755 11.2941 18.9467 11.1993 18.7571 11.0099C18.5675 10.8204 18.4727 10.5897 18.4727 10.3137V9.33337C18.4727 9.05945 18.5675 8.82672 18.7571 8.63724C18.9467 8.44776 19.1775 8.35302 19.4537 8.35302H29.256C29.8929 8.35302 30.435 8.13059 30.8822 7.68366C31.3295 7.23673 31.552 6.70125 31.552 6.07308C31.552 5.44492 31.3295 4.90943 30.8822 4.4625C30.435 4.01558 29.8929 3.79315 29.256 3.79315H19.4537C19.1775 3.79315 18.9467 3.69429 18.7571 3.49657C18.5675 3.29885 18.4727 3.0723 18.4727 2.81279C18.4727 2.62331 18.5159 2.45649 18.6025 2.31026C18.6891 2.16403 18.8045 2.04457 18.9508 1.94983C19.0972 1.85509 19.2641 1.80772 19.4537 1.80772H29.256L29.2581 1.80566Z" fill="#9F73FD"/>
<path d="M20.427 15.8915C20.427 16.0295 20.4002 16.1573 20.3486 16.2789C20.2971 16.3984 20.2291 16.5014 20.1425 16.5879C20.056 16.6744 19.9529 16.7424 19.8334 16.7939C19.7118 16.8454 19.584 16.8722 19.4459 16.8722C19.1697 16.8722 18.9389 16.7775 18.7493 16.5879C18.5597 16.3984 18.4648 16.1655 18.4648 15.8915V13.4397C18.4648 13.2666 18.5081 13.1039 18.5947 12.9493C18.6813 12.7948 18.8008 12.6733 18.9554 12.5888C19.11 12.5023 19.2728 12.459 19.4459 12.459C19.72 12.459 19.9529 12.5538 20.1425 12.7433C20.3322 12.9329 20.427 13.1636 20.427 13.4397V15.8915Z" fill="#FF6699"/>
<rect x="39.3535" y="11.4336" width="7.41976" height="2.06105" rx="1.03052" fill="#FF6699"/>
<path fill-rule="evenodd" clip-rule="evenodd" d="M36.9316 7.10963C36.9316 3.72566 39.6769 0.982422 43.0632 0.982422C46.4496 0.982422 49.1949 3.72567 49.1949 7.10963V16.9955C49.1949 17.5358 48.7565 17.9738 48.2159 17.9738C47.6752 17.9738 47.2369 17.5358 47.2369 16.9955V7.10963C47.2369 4.80626 45.3683 2.93901 43.0632 2.93901C40.7582 2.93901 38.8896 4.80626 38.8896 7.10963V16.9955C38.8896 17.5358 38.4513 17.9738 37.9106 17.9738C37.37 17.9738 36.9316 17.5358 36.9316 16.9955V7.10963Z" fill="#9F73FD"/>
<path d="M75.4126 12.3148C75.31 12.1982 75.2351 12.0726 75.1834 11.9358C75.1332 11.8009 75.1077 11.6689 75.1084 11.5387C75.109 11.4084 75.1358 11.283 75.1873 11.1605C75.2403 11.0368 75.3164 10.9298 75.4201 10.8386C75.6275 10.6563 75.8713 10.584 76.1547 10.619C76.4381 10.654 76.6824 10.7881 76.8862 11.0196L80.8399 14.9513C80.8508 14.9637 80.8613 14.9754 80.8715 14.9866C81.1115 15.2511 81.3356 15.5975 81.2308 15.9388C81.179 16.1139 81.0889 16.258 80.9589 16.3722C80.753 16.5532 80.5077 16.6268 80.2243 16.5919C79.9409 16.5569 79.6981 16.4245 79.4928 16.1912L75.4126 12.3148Z" fill="#FF6699"/>
<path fill-rule="evenodd" clip-rule="evenodd" d="M72.9482 10.3854C73.0225 10.3379 73.0924 10.2817 73.1585 10.2157L80.7916 3.54706C81.0114 3.32745 81.128 3.07689 81.1448 2.79213C81.1617 2.50736 81.0724 2.26741 80.8786 2.07371C80.7562 1.95138 80.6066 1.87075 80.4284 1.83036C80.2519 1.78833 80.0706 1.80056 79.8863 1.86232C79.7021 1.92407 79.542 2.02297 79.4042 2.16064L72.9482 7.80086V2.78844C72.9482 2.24815 72.5099 1.81015 71.9692 1.81015C71.4285 1.81015 70.9902 2.24815 70.9902 2.78844V15.6115C70.9902 16.1518 71.4285 16.5898 71.9692 16.5898C72.5099 16.5898 72.9482 16.1518 72.9482 15.6115V10.3854Z" fill="#9F73FD"/>
<path d="M98.4674 4.82859C97.9398 4.13246 97.3421 3.55784 96.6743 3.10268C96.6248 3.05325 96.5692 3.00588 96.5053 2.96469C95.6252 2.40037 94.6256 2.042 93.5085 1.88548C91.4557 1.5992 89.6008 2.0832 87.9417 3.33541C86.2825 4.58763 85.3097 6.23939 85.0232 8.29072C84.7367 10.342 85.2211 12.1957 86.4742 13.8536C87.0018 14.5497 87.5995 15.1244 88.2673 15.5795C88.3168 15.629 88.3724 15.6763 88.4363 15.7175C89.3164 16.2818 90.316 16.6402 91.4331 16.7967C93.4859 17.083 95.3408 16.599 97 15.3468C98.6591 14.0946 99.6319 12.4428 99.9184 10.3915C100.205 8.34015 99.7205 6.48654 98.4674 4.82859ZM97.9748 10.1402C97.7832 11.5078 97.0886 12.7476 96.0333 13.6271C95.9591 13.6579 95.8891 13.695 95.821 13.7465L95.8128 13.7527C94.5803 14.6836 93.2056 15.042 91.6907 14.8319C90.1738 14.6218 88.9557 13.901 88.0323 12.6694C87.109 11.4377 86.7545 10.064 86.9668 8.54611C87.1585 7.17856 87.853 5.9387 88.9083 5.05927C88.9825 5.02837 89.0526 4.9913 89.1206 4.93981L89.1288 4.93363C90.3613 4.00271 91.736 3.64435 93.2509 3.85442C94.7678 4.0645 95.9859 4.78534 96.9093 6.01696C97.8326 7.24858 98.1871 8.62231 97.9748 10.1402Z" fill="#9F73FD"/>
<path d="M97.6817 5.50302C97.2943 5.7893 97.1624 6.31861 97.3932 6.73876C97.9517 7.7603 98.1475 8.87453 97.9785 10.0814C97.9105 10.5757 97.7848 11.0391 97.6075 11.4696C97.4571 11.8341 97.5395 12.2522 97.8178 12.5323L97.826 12.5406C98.3227 13.041 99.1677 12.866 99.4336 12.2131C99.6665 11.6385 99.8293 11.0206 99.92 10.3636C100.149 8.72418 99.885 7.21246 99.1307 5.82432C98.8462 5.30119 98.164 5.14672 97.6838 5.50096L97.6817 5.50302Z" fill="#FF6699"/>
<path d="M92.5664 22.2906C92.5582 21.9774 92.4613 21.7487 92.28 21.6107C92.1006 21.4788 91.8245 21.417 91.4308 21.417C90.8517 21.4211 90.3055 21.6189 90.3055 21.6189L90.2292 22.2349L90.357 22.1793C90.5281 22.1051 90.7033 22.0454 90.8743 22.0042C91.0371 21.965 91.1959 21.9465 91.3463 21.9465C91.5545 21.9465 91.7008 21.9733 91.7915 22.0289C91.8739 22.0784 91.9151 22.1546 91.9172 22.2638C91.9193 22.3524 91.8884 22.4245 91.8183 22.4863C91.7668 22.5337 91.641 22.612 91.3401 22.7232L90.6579 22.9705C90.3982 23.0673 90.2065 23.1868 90.0932 23.329C89.9757 23.4753 89.9201 23.6628 89.9262 23.8873C89.9345 24.149 90.0396 24.3612 90.2395 24.5178C90.3178 24.5776 90.4106 24.6291 90.5033 24.6641C90.6332 24.7156 90.7919 24.7403 90.932 24.7527C91.2824 24.7815 91.6101 24.6785 91.8698 24.4745L91.8471 24.6867H92.5561V24.0769L92.5685 22.5399C92.5685 22.5193 92.5685 22.2926 92.5685 22.2926L92.5664 22.2906ZM91.2886 24.1923C91.2247 24.2005 91.1587 24.2026 91.0949 24.2026C90.9341 24.2026 90.8104 24.1717 90.728 24.1099C90.6497 24.0522 90.6105 23.9698 90.6085 23.8585C90.6064 23.7575 90.6332 23.671 90.6888 23.6051C90.7445 23.5371 90.8578 23.4691 91.0248 23.4052L91.6781 23.158C91.775 23.1188 91.841 23.0859 91.8966 23.0529C91.9028 23.0488 91.909 23.0447 91.9172 23.0426L91.8925 23.9862C91.8925 24.0007 91.7771 24.0522 91.7606 24.0604C91.7193 24.081 91.4741 24.1696 91.2907 24.1902L91.2886 24.1923Z" fill="white"/>
<path d="M88.4272 23.948V23.9315L88.3366 23.9747C88.184 24.0489 88.0274 24.1066 87.8728 24.1499C87.6317 24.2137 87.372 24.2385 87.1309 24.1664C87.0505 24.1416 86.9742 24.1045 86.9041 24.0572C86.8382 24.0118 86.7825 23.9583 86.7351 23.8965C86.5414 23.641 86.5022 23.2825 86.5208 22.9693C86.5331 22.7262 86.5867 22.4666 86.7351 22.2708C86.7805 22.2111 86.8382 22.1555 86.9041 22.1101C86.9722 22.0628 87.0484 22.0257 87.1309 22.0009C87.4689 21.9 87.8234 21.9824 88.1449 22.0937C88.2521 22.1307 88.3757 22.1781 88.5097 22.2399L88.6231 21.6095C88.3304 21.5147 88.0233 21.4591 87.7182 21.4302C87.4503 21.4034 87.1762 21.4179 86.9186 21.5003C86.6712 21.5765 86.4672 21.7084 86.3064 21.8917C86.0014 22.2399 85.9128 22.753 85.9375 23.2062C85.9581 23.5689 86.0632 23.9789 86.2879 24.2632C86.5125 24.5455 86.8464 24.6938 87.1947 24.7309C87.5472 24.77 87.8873 24.7309 88.2294 24.6423C88.3613 24.6093 88.4911 24.5661 88.6189 24.5166L88.6334 24.5125L88.6251 24.5001C88.5159 24.3188 88.4499 24.1355 88.4272 23.9521V23.948Z" fill="white"/>
<path d="M96.2626 21.5393C96.1101 21.4981 95.9514 21.4672 95.7906 21.4487C95.6154 21.426 95.43 21.4157 95.2238 21.4198C94.8178 21.4281 94.5313 21.4961 94.3458 21.63C94.1583 21.7701 94.0573 21.9967 94.0449 22.3078V24.6834H94.758L94.7477 24.5721C94.7354 24.4774 94.721 24.2095 94.721 24.2095C94.721 24.1621 94.7168 24.1127 94.7168 24.0591L94.6735 22.7364C94.6694 22.6004 94.6715 22.4541 94.6839 22.3305C94.6962 22.2646 94.7313 22.1636 94.8261 22.0771C95.1888 21.7722 95.8277 22.0647 95.8277 22.0647C95.8339 22.0359 95.8483 22.0029 95.8648 21.972C95.9184 21.8834 95.9782 21.801 96.0483 21.7268C96.1122 21.6588 96.1822 21.595 96.2605 21.5393H96.2626Z" fill="white"/>
<path d="M99.345 20.5537C99.3492 20.6114 99.3636 20.9452 99.3656 21.485C99.2234 21.4603 99.108 21.4397 98.9658 21.4273C98.6896 21.4005 98.4073 21.4149 98.1393 21.4973C97.8838 21.5736 97.6715 21.7054 97.5086 21.8888C97.1954 22.237 97.1006 22.75 97.1274 23.2033C97.148 23.5659 97.2572 23.9759 97.4901 24.2603C97.723 24.5425 98.0672 24.6909 98.4258 24.728C98.4423 24.728 98.5453 24.7383 98.5804 24.7403C98.669 24.7465 98.7576 24.7486 98.8463 24.7465C98.9658 24.7424 99.0853 24.7321 99.2028 24.7135C99.2461 24.7074 99.2914 24.6991 99.3347 24.6867C99.3759 24.6764 99.4172 24.6641 99.4584 24.6476C99.4728 24.6435 99.5532 24.6105 99.5738 24.6002C99.6769 24.5508 99.7758 24.4828 99.8438 24.3962C99.8603 24.3736 99.8768 24.3489 99.8891 24.3241C99.9159 24.2685 99.9324 24.2067 99.9324 24.1366V20.5578H99.3471L99.345 20.5537ZM98.3578 24.1655C98.2733 24.1408 98.195 24.1037 98.1249 24.0563C98.0569 24.011 97.9992 23.9574 97.9518 23.8956C97.7518 23.6401 97.7127 23.2816 97.7292 22.9684C97.7436 22.7253 97.7972 22.4657 97.9518 22.27C97.9992 22.2102 98.0569 22.1546 98.1249 22.1093C98.197 22.0619 98.2753 22.0248 98.3578 22.0001C98.6958 21.9032 99.0235 22.0001 99.3471 22.1051C99.3471 22.1051 99.3492 23.9182 99.3492 23.9285C99.3492 24.0357 99.2234 24.0996 99.143 24.1366C99.0297 24.1881 98.8092 24.2046 98.8092 24.2046C98.6566 24.217 98.5041 24.2088 98.3557 24.1675L98.3578 24.1655Z" fill="white"/>
<path d="M68.6735 23.8328C68.6735 23.9482 68.6529 24.0595 68.6096 24.1666C68.5664 24.2758 68.4963 24.3726 68.3973 24.455C68.2984 24.5395 68.1645 24.6075 67.9996 24.659C67.8347 24.7105 67.6265 24.7353 67.3751 24.7353C67.2906 24.7353 67.204 24.7332 67.1174 24.7291C67.0309 24.725 66.9484 24.7188 66.8722 24.7105C66.7959 24.7023 66.732 24.694 66.6764 24.6858C66.6207 24.6776 66.5816 24.6693 66.561 24.6631C66.528 24.6549 66.5053 24.6425 66.495 24.6281C66.4847 24.6137 66.4785 24.591 66.4785 24.5642V21.6427C66.4785 21.6159 66.4847 21.5953 66.495 21.5788C66.5053 21.5644 66.528 21.552 66.561 21.5438C66.6063 21.5294 66.699 21.5129 66.8392 21.4964C66.9793 21.4799 67.1422 21.4717 67.3297 21.4717C67.5461 21.4717 67.7296 21.4923 67.88 21.5355C68.0284 21.5788 68.15 21.6344 68.2448 21.7045C68.3376 21.7746 68.4056 21.859 68.4468 21.9538C68.488 22.0486 68.5086 22.1495 68.5086 22.2587C68.5086 22.3576 68.4922 22.4462 68.4592 22.5266C68.4262 22.6049 68.3829 22.6729 68.3273 22.7326C68.2737 22.7924 68.2098 22.8418 68.1397 22.8851C68.0696 22.9283 67.9954 22.9613 67.9212 22.9881V22.9963C68.0181 23.0149 68.1109 23.0437 68.2016 23.087C68.2922 23.1303 68.3726 23.1838 68.4427 23.2518C68.5128 23.3198 68.5705 23.4022 68.6117 23.4991C68.6529 23.5959 68.6756 23.7071 68.6756 23.8328H68.6735ZM67.9625 22.3185C67.9625 22.1557 67.9151 22.0259 67.8182 21.927C67.7213 21.8302 67.5647 21.7807 67.3483 21.7807C67.2658 21.7807 67.1999 21.7849 67.1484 21.789C67.0968 21.7952 67.0556 21.8013 67.0226 21.8075V22.8892C67.0474 22.8933 67.0783 22.8954 67.1195 22.8954C67.1607 22.8954 67.2102 22.8974 67.2658 22.8974C67.4761 22.8974 67.6451 22.848 67.7729 22.7511C67.9006 22.6543 67.9625 22.5101 67.9625 22.3185ZM68.1026 23.806C68.1026 23.5959 68.0367 23.4352 67.9027 23.3239C67.7708 23.2147 67.5626 23.1591 67.2782 23.1591C67.2081 23.1591 67.1545 23.1591 67.1174 23.1612C67.0803 23.1612 67.0474 23.1653 67.0206 23.1673V24.3788C67.0577 24.385 67.1051 24.3912 67.1648 24.3974C67.2246 24.4035 67.2947 24.4056 67.373 24.4056C67.4987 24.4056 67.608 24.3912 67.7007 24.3603C67.7935 24.3294 67.8677 24.2882 67.9274 24.2346C67.9872 24.181 68.0305 24.1171 68.0593 24.043C68.0882 23.9688 68.1026 23.8905 68.1026 23.806Z" fill="white"/>
<path d="M71.9712 21.5862C71.9712 21.6006 71.965 21.6212 71.9527 21.6439L71.052 23.2304V24.6232C71.052 24.6747 71.0273 24.6994 70.9757 24.6994H70.5676C70.5161 24.6994 70.4914 24.6747 70.4914 24.6232V23.2304L69.601 21.6563L69.5825 21.6192C69.5763 21.6068 69.5742 21.5945 69.5742 21.578C69.5742 21.5306 69.601 21.5059 69.6567 21.5059H70.0771C70.108 21.5059 70.1286 21.51 70.1431 21.5203C70.1575 21.5285 70.1719 21.5471 70.1863 21.5739L70.8067 22.7895H70.815L71.4621 21.5739C71.4766 21.5471 71.4931 21.5285 71.5075 21.5203C71.5219 21.512 71.5446 21.5059 71.5755 21.5059H71.8929C71.9465 21.5059 71.9753 21.5306 71.9753 21.5821L71.9712 21.5862Z" fill="white"/>
<path d="M76.7421 23.8696C76.7421 23.9994 76.7174 24.1189 76.67 24.2301C76.6226 24.3393 76.5525 24.4362 76.4598 24.5144C76.367 24.5948 76.2557 24.6566 76.1217 24.7019C75.9898 24.7473 75.8373 24.7699 75.6704 24.7699C75.5034 24.7699 75.355 24.7431 75.2252 24.6916C75.0933 24.6381 74.9841 24.5742 74.8934 24.4959C74.8027 24.4176 74.7347 24.3352 74.6873 24.2466C74.6399 24.1601 74.6172 24.0818 74.6172 24.0117C74.6172 23.9293 74.6419 23.8675 74.6914 23.8242C74.7408 23.781 74.8027 23.7583 74.8789 23.7583C75.0047 23.7583 75.0953 23.8222 75.1448 23.9479C75.1654 23.9994 75.1922 24.0509 75.2211 24.1065C75.252 24.1601 75.2891 24.2095 75.3324 24.2528C75.3757 24.2961 75.4272 24.3331 75.4869 24.362C75.5467 24.3908 75.6147 24.4053 75.6931 24.4053C75.8538 24.4053 75.9734 24.3599 76.0579 24.2672C76.1403 24.1745 76.1815 24.0632 76.1815 23.9293C76.1815 23.7954 76.1444 23.6883 76.0702 23.6038C75.996 23.5193 75.9033 23.4472 75.792 23.3854C75.6807 23.3236 75.5591 23.2638 75.4292 23.2082C75.2994 23.1526 75.1799 23.0866 75.0665 23.0083C74.9552 22.9321 74.8624 22.8394 74.7883 22.7302C74.7141 22.621 74.677 22.4809 74.677 22.3099C74.677 22.1739 74.7037 22.0524 74.7553 21.9432C74.8089 21.834 74.8789 21.7433 74.9696 21.6691C75.0603 21.595 75.1675 21.5393 75.2911 21.5002C75.4148 21.461 75.5488 21.4404 75.6931 21.4404C75.8579 21.4404 76.0022 21.4631 76.1238 21.5105C76.2454 21.5579 76.3443 21.6135 76.4247 21.6794C76.5051 21.7454 76.5628 21.8154 76.602 21.8896C76.6391 21.9638 76.6576 22.0256 76.6576 22.0771C76.6576 22.1554 76.6349 22.2151 76.5875 22.2584C76.5401 22.3017 76.4804 22.3223 76.4082 22.3223C76.3485 22.3223 76.299 22.3058 76.2598 22.2728C76.2207 22.2398 76.1898 22.1966 76.165 22.1471C76.1465 22.1039 76.1238 22.0626 76.097 22.0173C76.0702 21.9741 76.0372 21.9329 76.0001 21.8978C75.963 21.8607 75.9177 21.8319 75.8662 21.8092C75.8147 21.7866 75.7549 21.7763 75.6848 21.7763C75.5426 21.7763 75.4292 21.8175 75.3427 21.8999C75.2561 21.9823 75.2128 22.0977 75.2128 22.246C75.2128 22.3635 75.2499 22.4603 75.3262 22.5345C75.4024 22.6107 75.4952 22.6766 75.6085 22.7343C75.7219 22.792 75.8435 22.8476 75.9754 22.9033C76.1073 22.9589 76.2289 23.0269 76.3423 23.1093C76.4556 23.1917 76.5504 23.2906 76.6246 23.4101C76.7009 23.5296 76.738 23.6821 76.738 23.8696H76.7421Z" fill="white"/>
<path d="M80.3942 23.8328C80.3942 23.9482 80.3736 24.0595 80.3303 24.1666C80.2871 24.2758 80.217 24.3726 80.1181 24.455C80.0191 24.5395 79.8852 24.6075 79.7203 24.659C79.5554 24.7105 79.3472 24.7353 79.0958 24.7353C79.0113 24.7353 78.9247 24.7332 78.8382 24.7291C78.7516 24.725 78.6691 24.7188 78.5929 24.7105C78.5166 24.7023 78.4527 24.694 78.3971 24.6858C78.3414 24.6776 78.3023 24.6693 78.2817 24.6631C78.2487 24.6549 78.226 24.6425 78.2157 24.6281C78.2054 24.6137 78.1992 24.591 78.1992 24.5642V21.6427C78.1992 21.6159 78.2054 21.5953 78.2157 21.5788C78.226 21.5644 78.2487 21.552 78.2817 21.5438C78.327 21.5294 78.4198 21.5129 78.5599 21.4964C78.7001 21.4799 78.8629 21.4717 79.0504 21.4717C79.2668 21.4717 79.4503 21.4923 79.6007 21.5355C79.7491 21.5788 79.8707 21.6344 79.9655 21.7045C80.0583 21.7746 80.1263 21.859 80.1675 21.9538C80.2087 22.0486 80.2294 22.1495 80.2294 22.2587C80.2294 22.3576 80.2129 22.4462 80.1799 22.5266C80.1469 22.6049 80.1036 22.6729 80.048 22.7326C79.9944 22.7924 79.9305 22.8418 79.8604 22.8851C79.7903 22.9283 79.7161 22.9613 79.642 22.9881V22.9963C79.7388 23.0149 79.8316 23.0437 79.9223 23.087C80.0129 23.1303 80.0933 23.1838 80.1634 23.2518C80.2335 23.3198 80.2912 23.4022 80.3324 23.4991C80.3736 23.5959 80.3963 23.7071 80.3963 23.8328H80.3942ZM79.6832 22.3185C79.6832 22.1557 79.6358 22.0259 79.5389 21.927C79.442 21.8302 79.2854 21.7807 79.069 21.7807C78.9865 21.7807 78.9206 21.7849 78.8691 21.789C78.8175 21.7952 78.7763 21.8013 78.7433 21.8075V22.8892C78.7681 22.8933 78.799 22.8954 78.8402 22.8954C78.8814 22.8954 78.9309 22.8974 78.9865 22.8974C79.1968 22.8974 79.3658 22.848 79.4936 22.7511C79.6213 22.6543 79.6832 22.5101 79.6832 22.3185ZM79.8233 23.806C79.8233 23.5959 79.7574 23.4352 79.6234 23.3239C79.4915 23.2147 79.2833 23.1591 78.9989 23.1591C78.9288 23.1591 78.8752 23.1591 78.8382 23.1612C78.8011 23.1612 78.7681 23.1653 78.7413 23.1673V24.3788C78.7784 24.385 78.8258 24.3912 78.8856 24.3974C78.9453 24.4035 79.0154 24.4056 79.0937 24.4056C79.2194 24.4056 79.3287 24.3912 79.4214 24.3603C79.5142 24.3294 79.5884 24.2882 79.6481 24.2346C79.7079 24.181 79.7512 24.1171 79.78 24.043C79.8089 23.9688 79.8233 23.8905 79.8233 23.806Z" fill="white"/>
<path d="M82.4473 24.623C82.4473 24.6745 82.4226 24.6993 82.3711 24.6993H81.9692C81.9156 24.6993 81.8867 24.6745 81.8867 24.623V21.584C81.8867 21.5325 81.9135 21.5078 81.9692 21.5078H82.3711C82.4226 21.5078 82.4473 21.5325 82.4473 21.584V24.623Z" fill="white"/>
<path d="M54.3964 15.6005C54.3964 15.7366 54.3708 15.8626 54.3217 15.9825C54.2725 16.1004 54.2077 16.202 54.1251 16.2874C54.0426 16.3727 53.9443 16.4398 53.8303 16.4906C53.7144 16.5414 53.5925 16.5678 53.4609 16.5678C53.1975 16.5678 52.9774 16.4743 52.7966 16.2874C52.6158 16.1004 52.5254 15.8708 52.5254 15.6005L52.7062 2.77299C52.7062 2.60228 52.7475 2.44174 52.83 2.28933C52.9126 2.13691 53.0265 2.01701 53.1739 1.93369C53.3213 1.84834 53.4766 1.80566 53.6417 1.80566C53.9031 1.80566 54.1251 1.89915 54.3059 2.08611C54.4868 2.27307 54.5772 2.50067 54.5772 2.77299L54.3964 15.6005Z" fill="#9F73FD"/>
<path d="M56.0404 9.3689C56.3479 8.83674 57.0521 8.69372 57.5427 9.06378L65.1417 14.7955C65.5539 15.1064 65.6695 15.6757 65.4112 16.1228C65.1037 16.6549 64.3995 16.798 63.9089 16.4279L56.3099 10.6962C55.8977 10.3853 55.7821 9.81599 56.0404 9.3689Z" fill="#FF6699"/>
<path fill-rule="evenodd" clip-rule="evenodd" d="M66.4565 3.06266C65.6221 2.22888 64.6209 1.81285 63.4529 1.8125C63.452 1.8125 63.4511 1.81287 63.4504 1.81353C63.4498 1.81419 63.4489 1.81456 63.4479 1.81456H53.6471C53.4575 1.81456 53.2905 1.86193 53.1442 1.95667C52.9978 2.05141 52.8824 2.17086 52.7959 2.31709C52.7093 2.46332 52.666 2.63015 52.666 2.81963C52.666 3.07913 52.7608 3.30569 52.9504 3.5034C53.1401 3.70112 53.3709 3.79998 53.6471 3.79998H63.4494C64.0863 3.79998 64.6283 4.02241 65.0756 4.46934C65.5228 4.91627 65.7454 5.45175 65.7454 6.07992C65.7454 6.70809 65.5228 7.24357 65.0756 7.6905C64.6283 8.13742 64.0863 8.35985 63.4494 8.35985H56.7867C56.2458 8.35985 55.8073 8.79831 55.8073 9.33918C55.8073 9.88004 56.2458 10.3185 56.7867 10.3185H63.4515C64.6201 10.3185 65.6217 9.90453 66.4565 9.0807C67.2912 8.25688 67.7075 7.25387 67.7075 6.07786C67.7075 4.90185 67.2912 3.89678 66.4565 3.06266ZM54.3568 10.3185C54.37 10.3185 54.381 10.3084 54.3821 10.2952L54.469 9.2531C54.5091 8.77225 54.1296 8.35985 53.6471 8.35985C53.3709 8.35985 53.1401 8.45459 52.9504 8.64407C52.8122 8.78225 52.829 8.94233 52.8483 9.12512C52.8555 9.19299 52.863 9.26398 52.863 9.33815V10.3185C52.863 10.3932 52.8555 10.4648 52.8483 10.5332C52.829 10.7174 52.8122 10.8785 52.9504 11.0167C53.1401 11.2062 53.3688 11.3009 53.6347 11.3009C53.9006 11.3009 54.1335 11.2062 54.3313 11.0167C54.4594 10.8941 54.4217 10.7533 54.3792 10.5945C54.358 10.5155 54.3356 10.4319 54.3319 10.3439C54.3313 10.3299 54.3427 10.3185 54.3568 10.3185Z" fill="#9F73FD"/>
</svg>
