<svg width="82" height="22" viewBox="0 0 82 22" fill="none" xmlns="http://www.w3.org/2000/svg">
<path d="M4.0714 2.06175C3.47645 2.06175 2.96282 2.27593 2.53248 2.70627C2.10213 3.13662 1.88795 3.65422 1.88795 4.25709C1.88795 4.85997 2.10213 5.38352 2.53248 5.82179C2.96282 6.26007 3.47645 6.4802 4.0714 6.4802H10.3758C11.5003 6.4802 12.4641 6.87683 13.2672 7.67207C14.0704 8.46731 14.471 9.43112 14.471 10.5635C14.471 11.6959 14.0704 12.6617 13.2672 13.4549C12.4641 14.2482 11.5003 14.6468 10.3758 14.6468H0.943977C0.761528 14.6468 0.600893 14.6051 0.46009 14.5219C0.319286 14.4386 0.20823 14.3275 0.124938 14.1867C0.041646 14.0459 0 13.8853 0 13.7028C0 13.4391 0.0912247 13.215 0.273674 13.0325C0.456123 12.8501 0.678236 12.7588 0.943977 12.7588H10.3758C10.9886 12.7588 11.5082 12.5447 11.9405 12.1143C12.3728 11.684 12.585 11.1664 12.585 10.5635C12.585 9.96062 12.3689 9.44302 11.9405 9.01267C11.5102 8.58233 10.9886 8.36815 10.3758 8.36815H4.0714C2.94497 8.36815 1.98711 7.96756 1.19187 7.16438C0.396629 6.35923 0 5.39542 0 4.27098C0 3.14653 0.396629 2.18074 1.19187 1.37955C1.98513 0.576376 2.94497 0.175781 4.0714 0.175781H4.7536C4.88647 0.175781 5.00942 0.201562 5.12643 0.249158C5.24145 0.298736 5.34061 0.366163 5.4239 0.447472C5.50719 0.530764 5.57264 0.629921 5.62222 0.744944C5.67179 0.861949 5.69758 0.984904 5.69758 1.11778C5.69758 1.38352 5.60635 1.60563 5.4239 1.78808C5.24145 1.97053 5.01736 2.06175 4.7536 2.06175H4.0714Z" fill="#9F73FD"/>
<path d="M27.077 0.200195C28.2015 0.200195 29.1653 0.600791 29.9684 1.40396C30.7716 2.20714 31.1722 3.17491 31.1722 4.30729C31.1722 5.43966 30.7716 6.40546 29.9684 7.19871C29.1653 7.99197 28.2015 8.39058 27.077 8.39058H18.5872C18.5872 8.65632 18.492 8.88042 18.3016 9.06287C18.1112 9.24532 17.8871 9.33654 17.6313 9.33654C17.3755 9.33654 17.1553 9.24532 16.9729 9.06287C16.7904 8.88042 16.6992 8.65831 16.6992 8.39257V7.44859C16.6992 7.18483 16.7904 6.96074 16.9729 6.77829C17.1553 6.59584 17.3775 6.50461 17.6432 6.50461H27.075C27.6878 6.50461 28.2094 6.29043 28.6397 5.86009C29.0701 5.42975 29.2843 4.91413 29.2843 4.30927C29.2843 3.70441 29.0701 3.18879 28.6397 2.75845C28.2094 2.32811 27.6878 2.11393 27.075 2.11393H17.6432C17.3775 2.11393 17.1553 2.01874 16.9729 1.82836C16.7904 1.63798 16.6992 1.41983 16.6992 1.16995C16.6992 0.987504 16.7409 0.826869 16.8242 0.686066C16.9074 0.545263 17.0185 0.43024 17.1593 0.339015C17.3001 0.247791 17.4607 0.202178 17.6432 0.202178H27.075L27.077 0.200195Z" fill="#9F73FD"/>
<path d="M45.0522 12.6849C45.3001 12.6849 45.5202 12.7761 45.7106 12.9585C45.901 13.141 45.9962 13.3651 45.9962 13.6288C45.9962 13.8926 45.901 14.1167 45.7106 14.2992C45.5202 14.4816 45.3021 14.5728 45.0522 14.5728H36.8598C35.8167 14.5728 34.9282 14.2 34.1925 13.4563C33.4568 12.7107 33.0879 11.8182 33.0879 10.7751V10.5768C33.0879 10.313 33.1791 10.0889 33.3616 9.90649C33.544 9.72404 33.7622 9.63281 34.02 9.63281C34.2778 9.63281 34.4999 9.72404 34.6903 9.90649C34.8807 10.0889 34.9758 10.313 34.9758 10.5768V10.7751C34.9758 11.3046 35.1623 11.7548 35.5351 12.1276C35.9079 12.5004 36.3502 12.6869 36.8638 12.6869H45.0562L45.0522 12.6849Z" fill="#9F73FD"/>
<path d="M49.1491 3.52344C49.3137 3.52344 49.4723 3.56508 49.621 3.64639C49.7698 3.72968 49.8848 3.84471 49.9681 3.99344C50.0514 4.14218 50.093 4.30083 50.093 4.46543V13.6256C50.093 13.7922 50.0514 13.9488 49.9681 14.0976C49.8848 14.2463 49.7698 14.3633 49.621 14.4446C49.4723 14.5279 49.3137 14.5676 49.1491 14.5676C48.8833 14.5676 48.6612 14.4763 48.4788 14.2939C48.2963 14.1114 48.2051 13.8893 48.2051 13.6236V4.46741C48.2051 4.21952 48.2963 3.99939 48.4788 3.80901C48.6612 3.61863 48.8833 3.52344 49.1491 3.52344Z" fill="#9F73FD"/>
<path d="M58.9551 0.0771785C59.2188 0.0771785 59.4429 0.168403 59.6254 0.350852C59.8078 0.533302 59.899 0.757397 59.899 1.02116V13.6062C59.899 13.8719 59.8078 14.094 59.6254 14.2765C59.4429 14.4589 59.2248 14.5502 58.967 14.5502C58.7092 14.5502 58.487 14.4589 58.2967 14.2765C58.1063 14.094 58.0111 13.8719 58.0111 13.6062V1.96315H52.6744C52.4107 1.96315 52.1866 1.87192 52.0041 1.68948C51.8217 1.50703 51.7305 1.28491 51.7305 1.01917C51.7305 0.854571 51.7721 0.69592 51.8554 0.547184C51.9387 0.398448 52.0498 0.283426 52.1906 0.200133C52.3314 0.116841 52.492 0.0751953 52.6744 0.0751953H58.9551V0.0771785Z" fill="#9F73FD"/>
<path d="M79.7258 2.94983C79.2181 2.27952 78.643 1.72623 78.0005 1.28795C77.9529 1.24036 77.8993 1.19474 77.8378 1.15508C76.991 0.611699 76.0292 0.266632 74.9543 0.115913C72.9791 -0.159744 71.1943 0.306295 69.5979 1.51205C68.0014 2.7178 67.0654 4.30828 66.7897 6.28349C66.5141 8.2587 66.9801 10.0435 68.1859 11.64C68.6936 12.3103 69.2687 12.8636 69.9112 13.3018C69.9588 13.3494 70.0124 13.395 70.0738 13.4347C70.9206 13.9781 71.8825 14.3232 72.9573 14.4739C74.9325 14.7495 76.7174 14.2835 78.3138 13.0777C79.9102 11.872 80.8463 10.2815 81.1219 8.3063C81.3976 6.33109 80.9315 4.54626 79.7258 2.94983ZM79.2518 8.06436C79.0674 9.38116 78.3991 10.575 77.3837 11.4218C77.3123 11.4516 77.2449 11.4873 77.1794 11.5368L77.1715 11.5428C75.9856 12.4392 74.6628 12.7842 73.2052 12.582C71.7456 12.3797 70.5736 11.6856 69.6851 10.4997C68.7967 9.31374 68.4556 7.99098 68.6598 6.5294C68.8443 5.21259 69.5126 4.01874 70.528 3.17194C70.5994 3.14219 70.6668 3.10649 70.7322 3.05692L70.7402 3.05097C71.9261 2.15459 73.2488 1.80952 74.7065 2.0118C76.166 2.21408 77.3381 2.90818 78.2265 4.0941C79.115 5.28002 79.4561 6.60278 79.2518 8.06436Z" fill="#9F73FD"/>
<path d="M49.1491 1.88597C48.9666 1.88597 48.806 1.84432 48.6652 1.76302C48.5244 1.67972 48.4133 1.5647 48.33 1.41597C48.2467 1.26723 48.2051 1.11056 48.2051 0.943977C48.2051 0.680219 48.2963 0.456123 48.4788 0.273674C48.6612 0.0912247 48.8793 0 49.1372 0C49.395 0 49.6171 0.0912247 49.8075 0.273674C49.9978 0.456123 50.093 0.680219 50.093 0.943977C50.093 1.20774 49.9978 1.43183 49.8075 1.61428C49.6171 1.79673 49.3969 1.88795 49.1491 1.88795V1.88597Z" fill="#FF6699"/>
<path d="M65.2567 0.0751953C65.3896 0.0751953 65.5125 0.100976 65.6295 0.150555C65.7446 0.200133 65.8437 0.265577 65.927 0.348869C66.0103 0.432161 66.0757 0.531319 66.1253 0.646341C66.1749 0.763347 66.2007 0.886302 66.2007 1.01917C66.2007 1.28491 66.1095 1.50703 65.927 1.68948C65.7446 1.87192 65.5205 1.96315 65.2567 1.96315H62.403C62.2364 1.96315 62.0797 1.9215 61.931 1.83821C61.7822 1.75492 61.6652 1.6399 61.5839 1.49116C61.5006 1.34242 61.459 1.18576 61.459 1.01917C61.459 0.755414 61.5502 0.531319 61.7327 0.348869C61.9151 0.16642 62.1372 0.0751953 62.403 0.0751953H65.2567Z" fill="#FF6699"/>
<path d="M18.5852 13.76C18.5852 13.8928 18.5594 14.0158 18.5099 14.1328C18.4603 14.2478 18.3948 14.347 18.3115 14.4303C18.2283 14.5136 18.1291 14.579 18.0141 14.6286C17.8971 14.6782 17.7741 14.704 17.6412 14.704C17.3755 14.704 17.1534 14.6127 16.9709 14.4303C16.7885 14.2478 16.6973 14.0237 16.6973 13.76V11.4C16.6973 11.2334 16.7389 11.0768 16.8222 10.928C16.9055 10.7793 17.0205 10.6623 17.1693 10.581C17.318 10.4977 17.4747 10.4561 17.6412 10.4561C17.905 10.4561 18.1291 10.5473 18.3115 10.7297C18.494 10.9122 18.5852 11.1343 18.5852 11.4V13.76Z" fill="#FF6699"/>
<path d="M34.9817 7.57115C34.9817 7.70402 34.9559 7.82698 34.9063 7.94398C34.8568 8.05901 34.7913 8.15816 34.708 8.24146C34.6247 8.32475 34.5256 8.39019 34.4106 8.43977C34.2936 8.48935 34.1706 8.51513 34.0377 8.51513C33.772 8.51513 33.5499 8.4239 33.3674 8.24146C33.185 8.05901 33.0938 7.83491 33.0938 7.57115V1.04066C33.0938 0.874073 33.1354 0.717404 33.2187 0.568668C33.302 0.419932 33.417 0.302927 33.5657 0.221618C33.7145 0.138326 33.8711 0.0966797 34.0377 0.0966797C34.3015 0.0966797 34.5256 0.187904 34.708 0.370354C34.8905 0.552803 34.9817 0.774915 34.9817 1.04066V7.57314V7.57115Z" fill="#FF6699"/>
<path d="M7.95179 2.06374C7.81892 2.06374 7.69596 2.03795 7.57896 1.98838C7.46394 1.9388 7.36478 1.87335 7.28149 1.79006C7.19819 1.70677 7.13275 1.60761 7.08317 1.49259C7.03359 1.37558 7.00781 1.25263 7.00781 1.11976C7.00781 0.854017 7.09904 0.631905 7.28149 0.449455C7.46394 0.267006 7.68803 0.175781 7.95179 0.175781H13.5284C13.695 0.175781 13.8516 0.217427 14.0004 0.300719C14.1491 0.384011 14.2661 0.499034 14.3474 0.64777C14.4307 0.796506 14.4724 0.953174 14.4724 1.11976C14.4724 1.38352 14.3811 1.60761 14.1987 1.79006C14.0162 1.97251 13.7941 2.06374 13.5284 2.06374H7.95179Z" fill="#FF6699"/>
<path d="M78.9712 3.60131C78.5984 3.87697 78.4715 4.38664 78.6936 4.7912C79.231 5.77484 79.4194 6.84772 79.2568 8.00984C79.1913 8.4858 79.0704 8.93201 78.8998 9.34648C78.7551 9.6975 78.8344 10.1001 79.1021 10.3698L79.11 10.3777C79.588 10.8596 80.4011 10.6911 80.6569 10.0624C80.881 9.5091 81.0377 8.91416 81.1249 8.28154C81.345 6.70295 81.0912 5.24732 80.3654 3.91068C80.0917 3.40697 79.4353 3.25823 78.9732 3.59933L78.9712 3.60131Z" fill="#FF6699"/>
<path d="M78.9712 3.60131C78.5984 3.87697 78.4715 4.38664 78.6936 4.7912C79.231 5.77484 79.4194 6.84772 79.2568 8.00984C79.1913 8.4858 79.0704 8.93201 78.8998 9.34648C78.7551 9.6975 78.8344 10.1001 79.1021 10.3698L79.11 10.3777C79.588 10.8596 80.4011 10.6911 80.6569 10.0624C80.881 9.5091 81.0377 8.91416 81.1249 8.28154C81.345 6.70295 81.0912 5.24732 80.3654 3.91068C80.0917 3.40697 79.4353 3.25823 78.9732 3.59933L78.9712 3.60131Z" fill="#FF6699"/>
<path d="M73.2088 19.6143C73.2009 19.3129 73.1077 19.0927 72.9332 18.9599C72.7606 18.8329 72.4949 18.7734 72.1161 18.7734C71.5588 18.7774 71.0333 18.9678 71.0333 18.9678L70.9599 19.5607L71.0829 19.5072C71.2475 19.4358 71.4161 19.3783 71.5807 19.3386C71.7373 19.301 71.89 19.2831 72.0348 19.2831C72.2351 19.2831 72.3759 19.3089 72.4632 19.3624C72.5425 19.41 72.5822 19.4834 72.5841 19.5885C72.5861 19.6738 72.5564 19.7432 72.4889 19.8027C72.4394 19.8483 72.3184 19.9237 72.0288 20.0308L71.3724 20.2687C71.1226 20.3619 70.9381 20.477 70.829 20.6138C70.716 20.7546 70.6625 20.9351 70.6684 21.1512C70.6763 21.4031 70.7775 21.6074 70.9699 21.7581C71.0452 21.8156 71.1345 21.8652 71.2237 21.8989C71.3486 21.9485 71.5013 21.9723 71.6362 21.9841C71.9733 22.0119 72.2886 21.9128 72.5385 21.7164L72.5167 21.9207H73.1989V21.3337L73.2108 19.8543C73.2108 19.8344 73.2108 19.6163 73.2108 19.6163L73.2088 19.6143ZM71.9793 21.4447C71.9178 21.4527 71.8543 21.4547 71.7929 21.4547C71.6382 21.4547 71.5192 21.4249 71.4399 21.3654C71.3645 21.3099 71.3268 21.2306 71.3248 21.1235C71.3229 21.0263 71.3486 20.943 71.4022 20.8795C71.4557 20.8141 71.5648 20.7487 71.7254 20.6872L72.3541 20.4492C72.4473 20.4115 72.5108 20.3798 72.5643 20.3481C72.5703 20.3441 72.5762 20.3401 72.5841 20.3381L72.5603 21.2464C72.5603 21.2603 72.4493 21.3099 72.4334 21.3178C72.3937 21.3376 72.1578 21.4229 71.9813 21.4428L71.9793 21.4447Z" fill="#6D6E71"/>
<path d="M69.2236 21.2086V21.1928L69.1364 21.2344C68.9896 21.3058 68.8389 21.3613 68.6902 21.403C68.4581 21.4645 68.2083 21.4883 67.9762 21.4189C67.8989 21.3951 67.8255 21.3594 67.7581 21.3137C67.6946 21.2701 67.6411 21.2186 67.5955 21.1591C67.4091 20.9132 67.3714 20.5681 67.3892 20.2666C67.4011 20.0326 67.4527 19.7828 67.5955 19.5944C67.6391 19.5368 67.6946 19.4833 67.7581 19.4397C67.8235 19.3941 67.8969 19.3584 67.9762 19.3346C68.3015 19.2374 68.6426 19.3167 68.9519 19.4238C69.0551 19.4595 69.1741 19.5051 69.303 19.5646L69.412 18.9578C69.1304 18.8665 68.8349 18.813 68.5414 18.7852C68.2836 18.7595 68.0199 18.7733 67.772 18.8527C67.534 18.926 67.3377 19.053 67.183 19.2295C66.8895 19.5646 66.8042 20.0584 66.828 20.4947C66.8478 20.8437 66.949 21.2384 67.1651 21.5121C67.3813 21.7838 67.7026 21.9265 68.0377 21.9622C68.3768 21.9999 68.704 21.9622 69.0332 21.877C69.1602 21.8452 69.2851 21.8036 69.4081 21.756L69.4219 21.752L69.414 21.7401C69.3089 21.5656 69.2454 21.3891 69.2236 21.2126V21.2086Z" fill="#6D6E71"/>
<path d="M76.7647 18.8903C76.618 18.8506 76.4653 18.8209 76.3106 18.803C76.142 18.7812 75.9635 18.7713 75.7652 18.7753C75.3745 18.7832 75.0989 18.8486 74.9204 18.9775C74.7399 19.1124 74.6428 19.3305 74.6309 19.63V19.866V21.3395V21.9166H75.317L75.3071 21.8095C75.2952 21.7183 75.2813 21.4604 75.2813 21.4604C75.2813 21.4148 75.2774 21.3672 75.2774 21.3157L75.2357 20.0425C75.2318 19.9116 75.2337 19.7708 75.2456 19.6518C75.2575 19.5884 75.2912 19.4912 75.3825 19.4079C75.7315 19.1144 76.3463 19.396 76.3463 19.396C76.3522 19.3682 76.3661 19.3365 76.382 19.3068C76.4335 19.2215 76.491 19.1422 76.5585 19.0708C76.62 19.0053 76.6874 18.9438 76.7627 18.8903H76.7647Z" fill="#6D6E71"/>
<path d="M79.7318 17.9434C79.7357 17.9989 79.7496 18.3202 79.7516 18.8397C79.6147 18.8159 79.5037 18.7961 79.3669 18.7842C79.1011 18.7584 78.8294 18.7723 78.5716 18.8516C78.3257 18.925 78.1214 19.0519 77.9648 19.2284C77.6633 19.5636 77.5721 20.0574 77.5979 20.4937C77.6177 20.8427 77.7228 21.2374 77.9469 21.511C78.171 21.7827 78.5022 21.9255 78.8473 21.9612C78.8631 21.9612 78.9623 21.9711 78.996 21.9731C79.0813 21.9791 79.1666 21.981 79.2518 21.9791C79.3669 21.9751 79.4819 21.9652 79.5949 21.9473C79.6366 21.9414 79.6802 21.9334 79.7218 21.9215C79.7615 21.9116 79.8012 21.8997 79.8408 21.8839C79.8547 21.8799 79.9321 21.8482 79.9519 21.8383C80.051 21.7907 80.1462 21.7252 80.2117 21.6419C80.2275 21.6201 80.2434 21.5963 80.2553 21.5725C80.2811 21.519 80.297 21.4595 80.297 21.392V17.9473H79.7337L79.7318 17.9434ZM78.7818 21.4198C78.7005 21.396 78.6252 21.3603 78.5577 21.3147C78.4923 21.2711 78.4368 21.2195 78.3912 21.16C78.1988 20.9141 78.1611 20.569 78.177 20.2676C78.1909 20.0336 78.2424 19.7837 78.3912 19.5953C78.4368 19.5378 78.4923 19.4843 78.5577 19.4406C78.6271 19.395 78.7025 19.3593 78.7818 19.3355C79.1071 19.2423 79.4224 19.3355 79.7337 19.4367C79.7337 19.4367 79.7357 21.1818 79.7357 21.1917C79.7357 21.2949 79.6148 21.3564 79.5374 21.392C79.4283 21.4416 79.2161 21.4575 79.2161 21.4575C79.0694 21.4694 78.9226 21.4615 78.7798 21.4218L78.7818 21.4198Z" fill="#6D6E71"/>
<path d="M50.2195 21.0989C50.2195 21.2099 50.1996 21.317 50.158 21.4201C50.1163 21.5252 50.0489 21.6184 49.9537 21.6978C49.8585 21.7791 49.7296 21.8445 49.571 21.8941C49.4123 21.9437 49.212 21.9675 48.9701 21.9675C48.8888 21.9675 48.8055 21.9655 48.7222 21.9615C48.6389 21.9576 48.5596 21.9516 48.4862 21.9437C48.4128 21.9357 48.3513 21.9278 48.2978 21.9199C48.2443 21.9119 48.2066 21.904 48.1867 21.8981C48.155 21.8901 48.1332 21.8782 48.1233 21.8643C48.1134 21.8505 48.1074 21.8287 48.1074 21.8029V18.9908C48.1074 18.965 48.1134 18.9452 48.1233 18.9293C48.1332 18.9154 48.155 18.9035 48.1867 18.8956C48.2304 18.8817 48.3196 18.8658 48.4545 18.85C48.5893 18.8341 48.746 18.8262 48.9265 18.8262C49.1347 18.8262 49.3112 18.846 49.456 18.8876C49.5987 18.9293 49.7158 18.9828 49.807 19.0503C49.8962 19.1177 49.9617 19.199 50.0013 19.2902C50.041 19.3815 50.0608 19.4786 50.0608 19.5837C50.0608 19.6789 50.045 19.7642 50.0132 19.8415C49.9815 19.9169 49.9398 19.9823 49.8863 20.0399C49.8347 20.0974 49.7733 20.145 49.7058 20.1866C49.6384 20.2283 49.567 20.26 49.4956 20.2858V20.2937C49.5888 20.3115 49.6781 20.3393 49.7653 20.381C49.8526 20.4226 49.9299 20.4742 49.9974 20.5396C50.0648 20.6051 50.1203 20.6844 50.16 20.7776C50.1996 20.8708 50.2215 20.9779 50.2215 21.0989H50.2195ZM49.5353 19.6412C49.5353 19.4846 49.4897 19.3596 49.3965 19.2644C49.3033 19.1712 49.1525 19.1236 48.9443 19.1236C48.865 19.1236 48.8015 19.1276 48.7519 19.1316C48.7024 19.1375 48.6627 19.1435 48.631 19.1494V20.1906C48.6548 20.1945 48.6845 20.1965 48.7242 20.1965C48.7638 20.1965 48.8114 20.1985 48.865 20.1985C49.0673 20.1985 49.2299 20.1509 49.3528 20.0577C49.4758 19.9645 49.5353 19.8257 49.5353 19.6412ZM49.6701 21.0731C49.6701 20.8708 49.6067 20.7161 49.4778 20.609C49.3509 20.5039 49.1506 20.4504 48.8769 20.4504C48.8095 20.4504 48.7579 20.4504 48.7222 20.4523C48.6865 20.4523 48.6548 20.4563 48.629 20.4583V21.6244C48.6647 21.6303 48.7103 21.6363 48.7678 21.6422C48.8253 21.6482 48.8927 21.6502 48.9681 21.6502C49.0891 21.6502 49.1942 21.6363 49.2834 21.6065C49.3727 21.5768 49.4441 21.5371 49.5016 21.4856C49.5591 21.434 49.6007 21.3725 49.6285 21.3011C49.6563 21.2297 49.6701 21.1544 49.6701 21.0731Z" fill="#6D6E71"/>
<path d="M53.3923 18.9367C53.3923 18.9506 53.3864 18.9704 53.3745 18.9922L52.5078 20.5193V21.8599C52.5078 21.9095 52.4841 21.9332 52.4345 21.9332H52.0418C51.9922 21.9332 51.9684 21.9095 51.9684 21.8599V20.5193L51.1117 19.0041L51.0939 18.9684C51.0879 18.9565 51.0859 18.9446 51.0859 18.9288C51.0859 18.8832 51.1117 18.8594 51.1653 18.8594H51.5698C51.5996 18.8594 51.6194 18.8633 51.6333 18.8733C51.6472 18.8812 51.661 18.899 51.6749 18.9248L52.2719 20.0949H52.2798L52.9025 18.9248C52.9164 18.899 52.9322 18.8812 52.9461 18.8733C52.96 18.8653 52.9818 18.8594 53.0116 18.8594H53.317C53.3685 18.8594 53.3963 18.8832 53.3963 18.9328L53.3923 18.9367Z" fill="#6D6E71"/>
<path d="M57.986 21.1331C57.986 21.258 57.9622 21.373 57.9166 21.4801C57.871 21.5852 57.8036 21.6784 57.7143 21.7538C57.6251 21.8311 57.518 21.8906 57.3891 21.9342C57.2622 21.9779 57.1154 21.9997 56.9548 21.9997C56.7942 21.9997 56.6514 21.9739 56.5264 21.9243C56.3995 21.8728 56.2944 21.8113 56.2071 21.7359C56.1199 21.6606 56.0544 21.5812 56.0088 21.496C55.9632 21.4127 55.9414 21.3373 55.9414 21.2699C55.9414 21.1906 55.9652 21.1311 56.0128 21.0894C56.0604 21.0478 56.1199 21.026 56.1933 21.026C56.3142 21.026 56.4015 21.0874 56.4491 21.2084C56.4689 21.258 56.4947 21.3076 56.5225 21.3611C56.5522 21.4127 56.5879 21.4603 56.6296 21.5019C56.6712 21.5436 56.7208 21.5793 56.7783 21.607C56.8358 21.6348 56.9012 21.6487 56.9766 21.6487C57.1313 21.6487 57.2463 21.605 57.3276 21.5158C57.4069 21.4266 57.4466 21.3195 57.4466 21.1906C57.4466 21.0617 57.4109 20.9585 57.3395 20.8772C57.2681 20.7959 57.1789 20.7265 57.0718 20.667C56.9647 20.6075 56.8477 20.55 56.7228 20.4965C56.5978 20.4429 56.4828 20.3795 56.3737 20.3041C56.2666 20.2307 56.1774 20.1415 56.106 20.0364C56.0346 19.9313 55.9989 19.7964 55.9989 19.6318C55.9989 19.5009 56.0247 19.3839 56.0743 19.2788C56.1258 19.1737 56.1933 19.0864 56.2805 19.0151C56.3678 18.9437 56.4709 18.8901 56.5899 18.8524C56.7089 18.8148 56.8378 18.7949 56.9766 18.7949C57.1353 18.7949 57.2741 18.8167 57.3911 18.8623C57.5081 18.908 57.6033 18.9615 57.6806 19.025C57.758 19.0884 57.8135 19.1559 57.8512 19.2272C57.8869 19.2986 57.9047 19.3581 57.9047 19.4077C57.9047 19.4831 57.8829 19.5406 57.8373 19.5822C57.7917 19.6239 57.7342 19.6437 57.6648 19.6437C57.6072 19.6437 57.5597 19.6278 57.522 19.5961C57.4843 19.5644 57.4545 19.5227 57.4307 19.4751C57.4129 19.4335 57.3911 19.3938 57.3653 19.3502C57.3395 19.3086 57.3078 19.2689 57.2721 19.2352C57.2364 19.1995 57.1928 19.1717 57.1432 19.1499C57.0936 19.1281 57.0361 19.1182 56.9687 19.1182C56.8318 19.1182 56.7228 19.1578 56.6395 19.2372C56.5562 19.3165 56.5145 19.4275 56.5145 19.5703C56.5145 19.6834 56.5502 19.7766 56.6236 19.848C56.697 19.9213 56.7862 19.9848 56.8953 20.0403C57.0044 20.0959 57.1214 20.1494 57.2483 20.203C57.3752 20.2565 57.4922 20.3219 57.6013 20.4013C57.7104 20.4806 57.8016 20.5758 57.873 20.6908C57.9464 20.8058 57.9821 20.9526 57.9821 21.1331H57.986Z" fill="#6D6E71"/>
<path d="M61.4968 21.0989C61.4968 21.2099 61.477 21.317 61.4353 21.4201C61.3937 21.5252 61.3263 21.6184 61.2311 21.6978C61.1359 21.7791 61.007 21.8445 60.8483 21.8941C60.6897 21.9437 60.4894 21.9675 60.2474 21.9675C60.1661 21.9675 60.0828 21.9655 59.9995 21.9615C59.9162 21.9576 59.8369 21.9516 59.7635 21.9437C59.6902 21.9357 59.6287 21.9278 59.5751 21.9199C59.5216 21.9119 59.4839 21.904 59.4641 21.8981C59.4324 21.8901 59.4105 21.8782 59.4006 21.8643C59.3907 21.8505 59.3848 21.8287 59.3848 21.8029V18.9908C59.3848 18.965 59.3907 18.9452 59.4006 18.9293C59.4105 18.9154 59.4324 18.9035 59.4641 18.8956C59.5077 18.8817 59.597 18.8658 59.7318 18.85C59.8667 18.8341 60.0233 18.8262 60.2038 18.8262C60.412 18.8262 60.5885 18.846 60.7333 18.8876C60.8761 18.9293 60.9931 18.9828 61.0843 19.0503C61.1736 19.1177 61.239 19.199 61.2787 19.2902C61.3183 19.3815 61.3382 19.4786 61.3382 19.5837C61.3382 19.6789 61.3223 19.7642 61.2906 19.8415C61.2588 19.9169 61.2172 19.9823 61.1636 20.0399C61.1121 20.0974 61.0506 20.145 60.9832 20.1866C60.9158 20.2283 60.8444 20.26 60.773 20.2858V20.2937C60.8662 20.3115 60.9554 20.3393 61.0427 20.381C61.1299 20.4226 61.2073 20.4742 61.2747 20.5396C61.3421 20.6051 61.3977 20.6844 61.4373 20.7776C61.477 20.8708 61.4988 20.9779 61.4988 21.0989H61.4968ZM60.8126 19.6412C60.8126 19.4846 60.767 19.3596 60.6738 19.2644C60.5806 19.1712 60.4299 19.1236 60.2217 19.1236C60.1423 19.1236 60.0789 19.1276 60.0293 19.1316C59.9797 19.1375 59.94 19.1435 59.9083 19.1494V20.1906C59.9321 20.1945 59.9619 20.1965 60.0015 20.1965C60.0412 20.1965 60.0888 20.1985 60.1423 20.1985C60.3446 20.1985 60.5072 20.1509 60.6302 20.0577C60.7531 19.9645 60.8126 19.8257 60.8126 19.6412ZM60.9475 21.0731C60.9475 20.8708 60.884 20.7161 60.7551 20.609C60.6282 20.5039 60.4279 20.4504 60.1542 20.4504C60.0868 20.4504 60.0352 20.4504 59.9995 20.4523C59.9638 20.4523 59.9321 20.4563 59.9063 20.4583V21.6244C59.942 21.6303 59.9876 21.6363 60.0452 21.6422C60.1027 21.6482 60.1701 21.6502 60.2454 21.6502C60.3664 21.6502 60.4715 21.6363 60.5608 21.6065C60.65 21.5768 60.7214 21.5371 60.7789 21.4856C60.8364 21.434 60.8781 21.3725 60.9058 21.3011C60.9336 21.2297 60.9475 21.1544 60.9475 21.0731Z" fill="#6D6E71"/>
<path d="M63.473 21.8589C63.473 21.9084 63.4492 21.9322 63.3996 21.9322H63.0129C62.9614 21.9322 62.9336 21.9084 62.9336 21.8589V18.9337C62.9336 18.8841 62.9594 18.8604 63.0129 18.8604H63.3996C63.4492 18.8604 63.473 18.8841 63.473 18.9337V21.8589Z" fill="#6D6E71"/>
</svg>
