<svg width="181" height="51" viewBox="0 0 181 51" fill="none" xmlns="http://www.w3.org/2000/svg">
<path d="M11.0292 15.0636C9.85593 15.0636 8.84298 15.486 7.9943 16.3346C7.14562 17.1833 6.72324 18.2041 6.72324 19.393C6.72324 20.5819 7.14562 21.6144 7.9943 22.4788C8.84298 23.3431 9.85593 23.7772 11.0292 23.7772H23.4622C25.6797 23.7772 27.5804 24.5594 29.1644 26.1277C30.7483 27.696 31.5383 29.5967 31.5383 31.8299C31.5383 34.063 30.7483 35.9677 29.1644 37.5321C27.5804 39.0965 25.6797 39.8826 23.4622 39.8826H4.86162C4.50181 39.8826 4.18502 39.8004 3.90734 39.6362C3.62967 39.4719 3.41065 39.2529 3.24639 38.9752C3.08213 38.6975 3 38.3808 3 38.0209C3 37.5008 3.1799 37.0588 3.53971 36.699C3.89952 36.3392 4.33755 36.1593 4.86162 36.1593H23.4622C24.6707 36.1593 25.6953 35.7369 26.5479 34.8883C27.4005 34.0396 27.819 33.0188 27.819 31.8299C27.819 30.6409 27.3927 29.6202 26.5479 28.7715C25.6993 27.9228 24.6707 27.5004 23.4622 27.5004H11.0292C8.80779 27.5004 6.91879 26.7104 5.35049 25.1265C3.78219 23.5386 3 21.6379 3 19.4204C3 17.2029 3.78219 15.2982 5.35049 13.7182C6.91488 12.1343 8.80779 11.3442 11.0292 11.3442H12.3746C12.6366 11.3442 12.8791 11.3951 13.1098 11.4889C13.3367 11.5867 13.5322 11.7197 13.6965 11.88C13.8608 12.0443 13.9898 12.2398 14.0876 12.4667C14.1854 12.6974 14.2362 12.9399 14.2362 13.2019C14.2362 13.726 14.0563 14.164 13.6965 14.5239C13.3367 14.8837 12.8947 15.0636 12.3746 15.0636H11.0292Z" fill="white"/>
<path d="M56.4083 11.3911C58.6259 11.3911 60.5266 12.1811 62.1105 13.7651C63.6945 15.349 64.4845 17.2576 64.4845 19.4907C64.4845 21.7239 63.6945 23.6285 62.1105 25.1929C60.5266 26.7573 58.6259 27.5434 56.4083 27.5434H39.6655C39.6655 28.0675 39.4778 28.5094 39.1023 28.8692C38.7269 29.229 38.2849 29.4089 37.7804 29.4089C37.2759 29.4089 36.8418 29.229 36.482 28.8692C36.1222 28.5094 35.9423 28.0714 35.9423 27.5473V25.6857C35.9423 25.1655 36.1222 24.7236 36.482 24.3638C36.8418 24.004 37.2798 23.8241 37.8039 23.8241H56.4044C57.6129 23.8241 58.6415 23.4017 59.4902 22.553C60.3389 21.7043 60.7613 20.6875 60.7613 19.4946C60.7613 18.3018 60.3389 17.2849 59.4902 16.4363C58.6415 15.5876 57.6129 15.1652 56.4044 15.1652H37.8039C37.2798 15.1652 36.8418 14.9775 36.482 14.602C36.1222 14.2266 35.9423 13.7964 35.9423 13.3036C35.9423 12.9438 36.0244 12.627 36.1887 12.3493C36.3529 12.0716 36.5719 11.8448 36.8496 11.6649C37.1273 11.485 37.4441 11.395 37.8039 11.395H56.4044L56.4083 11.3911Z" fill="white"/>
<path d="M91.85 36.0151C92.3389 36.0151 92.773 36.195 93.1484 36.5548C93.5239 36.9146 93.7116 37.3565 93.7116 37.8767C93.7116 38.3969 93.5239 38.8388 93.1484 39.1986C92.773 39.5584 92.3428 39.7383 91.85 39.7383H75.6938C73.6366 39.7383 71.8845 39.003 70.4335 37.5364C68.9826 36.0659 68.2551 34.306 68.2551 32.2488V31.8577C68.2551 31.3376 68.435 30.8956 68.7948 30.5358C69.1546 30.176 69.5849 29.9961 70.0933 29.9961C70.6017 29.9961 71.0397 30.176 71.4152 30.5358C71.7906 30.8956 71.9784 31.3376 71.9784 31.8577V32.2488C71.9784 33.293 72.346 34.1808 73.0813 34.9161C73.8165 35.6514 74.6887 36.019 75.7016 36.019H91.8578L91.85 36.0151Z" fill="white"/>
<path d="M99.9256 17.9497C100.25 17.9497 100.563 18.0318 100.856 18.1922C101.15 18.3564 101.377 18.5833 101.541 18.8766C101.705 19.1699 101.787 19.4828 101.787 19.8074V37.8722C101.787 38.2007 101.705 38.5097 101.541 38.803C101.377 39.0963 101.15 39.3271 100.856 39.4874C100.563 39.6517 100.25 39.7299 99.9256 39.7299C99.4015 39.7299 98.9635 39.55 98.6037 39.1902C98.2439 38.8304 98.064 38.3923 98.064 37.8683V19.8113C98.064 19.3225 98.2439 18.8883 98.6037 18.5129C98.9635 18.1374 99.4015 17.9497 99.9256 17.9497Z" fill="white"/>
<path d="M119.261 11.1489C119.781 11.1489 120.223 11.3288 120.583 11.6886C120.943 12.0485 121.123 12.4904 121.123 13.0106V37.8295C121.123 38.3536 120.943 38.7916 120.583 39.1515C120.223 39.5113 119.793 39.6912 119.285 39.6912C118.776 39.6912 118.338 39.5113 117.963 39.1515C117.587 38.7916 117.4 38.3536 117.4 37.8295V14.8683H106.875C106.355 14.8683 105.913 14.6884 105.553 14.3285C105.193 13.9687 105.014 13.5307 105.014 13.0066C105.014 12.682 105.096 12.3692 105.26 12.0758C105.424 11.7825 105.643 11.5557 105.921 11.3914C106.199 11.2271 106.515 11.145 106.875 11.145H119.261V11.1489Z" fill="white"/>
<path d="M160.229 16.8189C159.227 15.497 158.093 14.4059 156.826 13.5416C156.732 13.4477 156.627 13.3577 156.505 13.2795C154.835 12.2079 152.939 11.5274 150.819 11.2302C146.923 10.6865 143.404 11.6056 140.255 13.9835C137.107 16.3614 135.261 19.498 134.717 23.3933C134.174 27.2886 135.093 30.8085 137.471 33.9568C138.472 35.2787 139.606 36.3699 140.873 37.2342C140.967 37.328 141.073 37.418 141.194 37.4962C142.864 38.5678 144.761 39.2483 146.88 39.5456C150.776 40.0892 154.296 39.1701 157.444 36.7922C160.592 34.4144 162.438 31.2778 162.982 27.3825C163.526 23.4871 162.606 19.9673 160.229 16.8189ZM159.294 26.9053C158.93 29.5022 157.612 31.8566 155.61 33.5266C155.469 33.5853 155.336 33.6557 155.207 33.7534L155.191 33.7652C152.853 35.5329 150.244 36.2134 147.369 35.8145C144.491 35.4156 142.179 34.0467 140.427 31.708C138.675 29.3692 138.003 26.7606 138.405 23.8782C138.769 21.2814 140.087 18.927 142.09 17.257C142.23 17.1983 142.363 17.1279 142.492 17.0301L142.508 17.0184C144.847 15.2506 147.455 14.5701 150.33 14.9691C153.208 15.368 155.52 16.7368 157.272 19.0756C159.024 21.4143 159.697 24.0229 159.294 26.9053Z" fill="white"/>
<path d="M99.9256 14.7193C99.5658 14.7193 99.249 14.6372 98.9713 14.4768C98.6936 14.3126 98.4746 14.0858 98.3104 13.7924C98.1461 13.4991 98.064 13.1901 98.064 12.8616C98.064 12.3415 98.2439 11.8995 98.6037 11.5397C98.9635 11.1799 99.3937 11 99.9021 11C100.411 11 100.849 11.1799 101.224 11.5397C101.599 11.8995 101.787 12.3415 101.787 12.8616C101.787 13.3818 101.599 13.8237 101.224 14.1835C100.849 14.5433 100.414 14.7232 99.9256 14.7232V14.7193Z" fill="white"/>
<path d="M131.694 11.1484C131.956 11.1484 132.199 11.1993 132.43 11.2971C132.656 11.3948 132.852 11.5239 133.016 11.6882C133.181 11.8524 133.31 12.048 133.407 12.2748C133.505 12.5055 133.556 12.748 133.556 13.0101C133.556 13.5341 133.376 13.9722 133.016 14.332C132.656 14.6918 132.214 14.8717 131.694 14.8717H126.066C125.738 14.8717 125.429 14.7895 125.136 14.6253C124.842 14.461 124.612 14.2342 124.451 13.9409C124.287 13.6475 124.205 13.3386 124.205 13.0101C124.205 12.4899 124.385 12.048 124.745 11.6882C125.104 11.3283 125.542 11.1484 126.066 11.1484H131.694Z" fill="white"/>
<path d="M39.6456 38.1387C39.6456 38.4008 39.5948 38.6432 39.497 38.874C39.3992 39.1008 39.2702 39.2964 39.1059 39.4606C38.9416 39.6249 38.7461 39.7539 38.5192 39.8517C38.2885 39.9495 38.046 40.0003 37.784 40.0003C37.2599 40.0003 36.8219 39.8204 36.4621 39.4606C36.1023 39.1008 35.9224 38.6589 35.9224 38.1387V33.4847C35.9224 33.1561 36.0045 32.8472 36.1688 32.5539C36.333 32.2605 36.5598 32.0298 36.8532 31.8694C37.1465 31.7052 37.4555 31.623 37.784 31.623C38.3041 31.623 38.7461 31.803 39.1059 32.1628C39.4657 32.5226 39.6456 32.9606 39.6456 33.4847V38.1387Z" fill="white"/>
<path d="M71.9891 25.9357C71.9891 26.1978 71.9383 26.4403 71.8405 26.671C71.7427 26.8978 71.6137 27.0934 71.4494 27.2577C71.2851 27.4219 71.0896 27.551 70.8628 27.6487C70.632 27.7465 70.3895 27.7974 70.1275 27.7974C69.6034 27.7974 69.1654 27.6175 68.8056 27.2577C68.4458 26.8978 68.2659 26.4559 68.2659 25.9357V13.0569C68.2659 12.7284 68.348 12.4194 68.5123 12.1261C68.6765 11.8328 68.9034 11.6021 69.1967 11.4417C69.49 11.2774 69.799 11.1953 70.1275 11.1953C70.6476 11.1953 71.0896 11.3752 71.4494 11.735C71.8092 12.0948 71.9891 12.5329 71.9891 13.0569V25.9397V25.9357Z" fill="white"/>
<path d="M18.6783 15.0675C18.4162 15.0675 18.1738 15.0166 17.943 14.9189C17.7162 14.8211 17.5206 14.692 17.3564 14.5278C17.1921 14.3635 17.063 14.168 16.9653 13.9411C16.8675 13.7104 16.8167 13.4679 16.8167 13.2059C16.8167 12.6818 16.9966 12.2438 17.3564 11.884C17.7162 11.5241 18.1581 11.3442 18.6783 11.3442H29.6759C30.0044 11.3442 30.3134 11.4264 30.6067 11.5906C30.9 11.7549 31.1308 11.9817 31.2911 12.275C31.4554 12.5684 31.5375 12.8773 31.5375 13.2059C31.5375 13.726 31.3576 14.168 30.9978 14.5278C30.638 14.8876 30.2 15.0675 29.6759 15.0675H18.6783Z" fill="white"/>
<path d="M158.739 18.1022C158.003 18.6458 157.753 19.651 158.191 20.4488C159.251 22.3886 159.623 24.5045 159.302 26.7963C159.173 27.7349 158.934 28.6149 158.598 29.4323C158.312 30.1245 158.469 30.9185 158.997 31.4503L159.013 31.466C159.955 32.4164 161.559 32.0839 162.063 30.8441C162.505 29.753 162.814 28.5797 162.986 27.3321C163.42 24.219 162.92 21.3483 161.488 18.7123C160.948 17.7189 159.654 17.4256 158.743 18.0983L158.739 18.1022Z" fill="white"/>
<path d="M158.739 18.1022C158.003 18.6458 157.753 19.651 158.191 20.4488C159.251 22.3886 159.623 24.5045 159.302 26.7963C159.173 27.7349 158.934 28.6149 158.598 29.4323C158.312 30.1245 158.469 30.9185 158.997 31.4503L159.013 31.466C159.955 32.4164 161.559 32.0839 162.063 30.8441C162.505 29.753 162.814 28.5797 162.986 27.3321C163.42 24.219 162.92 21.3483 161.488 18.7123C160.948 17.7189 159.654 17.4256 158.743 18.0983L158.739 18.1022Z" fill="white"/>
</svg>
