<svg width="26" height="26" viewBox="0 0 26 26" fill="none" xmlns="http://www.w3.org/2000/svg">
<rect width="26" height="26" rx="4" fill="white"/>
<path d="M21.6489 6.28487C21.378 7.09801 20.8852 7.70734 20.1632 8.17404C20.356 8.18839 20.5134 8.14619 20.6704 8.11286C20.8383 8.07783 21.0063 8.04028 21.1713 7.99471C21.3295 7.95082 21.4856 7.89807 21.6405 7.84279C21.7941 7.78836 21.9447 7.72549 22.1397 7.64953C21.7198 8.26857 21.259 8.78253 20.7126 9.21885C20.691 9.23615 20.6695 9.25429 20.6455 9.26695C20.386 9.39987 20.3543 9.61888 20.3644 9.8881C20.4054 10.9768 20.2104 12.0338 19.875 13.0655C19.6956 13.6166 19.4585 14.1428 19.2006 14.6627C18.8669 15.3358 18.4377 15.9413 17.9681 16.5211C17.5305 17.0612 17.0114 17.5178 16.4772 17.9613C16.1468 18.2351 15.7784 18.4402 15.4231 18.6715C15.032 18.9263 14.6121 19.1344 14.1851 19.3006C13.6859 19.4947 13.1673 19.6589 12.6356 19.7601C12.1537 19.8521 11.671 19.9327 11.1798 19.9737C10.7262 20.0116 10.2742 19.9981 9.82188 19.9956C9.34632 19.9931 8.87371 19.915 8.40827 19.8243C7.79557 19.7049 7.19552 19.5344 6.61489 19.2951C6.05535 19.0643 5.51523 18.8002 5 18.4512C6.8647 18.5892 8.55259 18.1246 10.0953 16.981C8.48676 16.8114 7.41664 15.9936 6.83347 14.5336C6.93981 14.4737 7.02758 14.5349 7.11619 14.5441C7.4428 14.5783 7.76561 14.5551 8.08926 14.5116C8.15129 14.5032 8.23062 14.4977 8.23737 14.4374C8.24455 14.3724 8.15762 14.3758 8.10867 14.361C7.55842 14.1973 7.07315 13.9074 6.67059 13.5112C6.17815 13.0271 5.83382 12.4406 5.68655 11.7536C5.62958 11.4891 5.58781 11.2228 5.58106 10.9249C6.08405 11.17 6.58451 11.3409 7.13138 11.3612C7.10691 11.2414 6.98876 11.211 6.91407 11.1481C6.19629 10.5426 5.78023 9.77754 5.6511 8.84793C5.54941 8.11455 5.70216 7.43306 6.0275 6.77942C6.07941 6.67477 6.09839 6.62709 6.2098 6.75622C6.98833 7.65881 7.87574 8.43313 8.92012 9.02179C9.88729 9.56698 10.9055 9.9649 12.0001 10.1679C12.3913 10.2404 12.7837 10.2923 13.1787 10.3299C13.3774 10.3489 13.4002 10.3063 13.3627 10.1109C13.3272 9.92607 13.2905 9.74041 13.2977 9.55136C13.3302 8.67408 13.5947 7.88752 14.1758 7.21152C14.6957 6.60684 15.3421 6.21018 16.1156 6.07093C17.0313 5.90594 17.9183 6.01523 18.7213 6.54228C18.9074 6.66423 19.1057 6.77352 19.2466 6.94526C19.3753 7.10266 19.504 7.0862 19.6796 7.04569C20.3442 6.89336 20.9653 6.63933 21.5561 6.30428C21.5742 6.29416 21.5979 6.29416 21.6481 6.28361L21.6489 6.28487ZM8.33611 14.4298C8.32346 14.4226 8.31291 14.4121 8.30658 14.4142C8.29518 14.4184 8.28674 14.4298 8.27704 14.4382C8.28421 14.4433 8.2935 14.4534 8.29856 14.4517C8.31122 14.4479 8.32177 14.4382 8.33569 14.4298H8.33611Z" fill="black"/>
</svg>
